<?xml version="1.0" encoding="UTF-8"?>
<svg width="800px" height="436px" viewBox="0 0 800 436" version="1.1" xmlns="http://www.w3.org/2000/svg" xmlns:xlink="http://www.w3.org/1999/xlink">
    <!-- Generator: Sketch 50.2 (55047) - http://www.bohemiancoding.com/sketch -->
    <title>P1C2_2</title>
    <desc>Created with Sketch.</desc>
    <defs></defs>
    <g id="P1C2_2" stroke="none" stroke-width="1" fill="none" fill-rule="evenodd">
        <g id="Group" transform="translate(4.000000, 214.000000)">
            <rect id="Rectangle-2" fill="#FFFFFF" x="0" y="0" width="120" height="36"></rect>
            <text id="User-Defaults" font-family="SFUIDisplay-Light, SF UI Display" font-size="20" font-weight="300" fill="#5992C7">
                <tspan x="3.203125" y="25">User Defaults</tspan>
            </text>
        </g>
        <g id="Group-3" transform="translate(253.000000, 214.000000)">
            <rect id="Rectangle-2" fill="#FFFFFF" x="0" y="0" width="144" height="36"></rect>
            <text id="Unix-File-System" font-family="SFUIDisplay-Light, SF UI Display" font-size="20" font-weight="300" fill="#5992C7">
                <tspan x="3.06933594" y="25">Unix File System</tspan>
            </text>
        </g>
        <g id="Group-2" transform="translate(132.000000, 214.000000)">
            <rect id="Rectangle-2" fill="#FFFFFF" x="0" y="0" width="113" height="36"></rect>
            <text id="UIDocument" font-family="SFUIDisplay-Light, SF UI Display" font-size="20" font-weight="300" fill="#5992C7">
                <tspan x="3.46777344" y="25">UIDocument</tspan>
            </text>
        </g>
        <g id="Group-6" transform="translate(568.000000, 214.000000)">
            <rect id="Rectangle-2" fill="#FFFFFF" x="0" y="0" width="77" height="36"></rect>
            <text id="CloudKit" font-family="SFUIDisplay-Light, SF UI Display" font-size="20" font-weight="300" fill="#5992C7">
                <tspan x="2.75292969" y="25">CloudKit</tspan>
            </text>
        </g>
        <g id="Group-4" transform="translate(405.000000, 214.000000)">
            <rect id="Rectangle-2" fill="#FFFFFF" x="0" y="0" width="62" height="36"></rect>
            <text id="SQLite" font-family="SFUIDisplay-Light, SF UI Display" font-size="20" font-weight="300" fill="#5992C7">
                <tspan x="2.86523438" y="25">SQLite</tspan>
            </text>
        </g>
        <g id="Group-5" transform="translate(474.000000, 214.000000)">
            <rect id="Rectangle-2" fill="#FFFFFF" x="0" y="0" width="86" height="36"></rect>
            <text id="CoreData" font-family="SFUIDisplay-Light, SF UI Display" font-size="20" font-weight="300" fill="#5992C7">
                <tspan x="2.70214844" y="25">CoreData</tspan>
            </text>
        </g>
        <g id="Group-7" transform="translate(653.000000, 214.000000)">
            <rect id="Rectangle-2" fill="#FFFFFF" x="0" y="0" width="58" height="36"></rect>
            <text id="Realm" font-family="SFUIDisplay-Light, SF UI Display" font-size="20" font-weight="300" fill="#5992C7">
                <tspan x="2.68652344" y="25">Realm</tspan>
            </text>
        </g>
        <g id="Group-8" transform="translate(719.000000, 214.000000)">
            <rect id="Rectangle-2" fill="#FFFFFF" x="0" y="0" width="78" height="36"></rect>
            <text id="Firebase" font-family="SFUIDisplay-Light, SF UI Display" font-size="20" font-weight="300" fill="#5992C7">
                <tspan x="2.89160156" y="25">Firebase</tspan>
            </text>
        </g>
        <text id="Swift-Object" font-family="SFUIDisplay-Light, SF UI Display" font-size="20" font-weight="300" fill="#FFFFFF">
            <tspan x="346.130859" y="32">Swift Object</tspan>
        </text>
        <g id="Group-10" transform="translate(194.000000, 36.000000)">
            <text id="Data" font-family="SFUIDisplay-Light, SF UI Display" font-size="18" font-weight="300" fill="#FFFFFF">
                <tspan x="44.140625" y="149">Data</tspan>
            </text>
            <path d="M40.5,153.5 L1.5,171.5" id="Line-3" stroke="#FFFFFF" stroke-linecap="square"></path>
            <path id="Line-3-decoration-1" d="M10.0487868,164.250294 L1.5,171.5 L12.5631359,169.69805" stroke="#FFFFFF" stroke-linecap="square"></path>
            <path d="M122.5,153.5 L83.5,171.5" id="Line-3" stroke="#FFFFFF" stroke-linecap="square" transform="translate(103.000000, 162.500000) scale(-1, 1) translate(-103.000000, -162.500000) "></path>
            <path id="Line-3-decoration-1" d="M92.0487868,164.250294 L83.5,171.5 L94.5631359,169.69805" stroke="#FFFFFF" stroke-linecap="square"></path>
            <path d="M145.113412,0.955741835 C132.592995,9.99151522 115.788023,25.942577 94.6984964,48.8089273 C73.6089694,71.6752776 62.2094706,98.2389685 60.5,128.5" id="Line-4" stroke="#FFFFFF" stroke-linecap="square"></path>
            <path id="Line-4-decoration-1" d="M58.1139051,117.547989 L60.5,128.5 L64.1043544,117.886394" stroke="#FFFFFF" stroke-linecap="square"></path>
            <g id="Group-9" transform="translate(0.000000, 38.000000)">
                <ellipse id="Oval" fill="#BF4E6C" cx="83" cy="29.5" rx="83" ry="29.5"></ellipse>
                <text id="Archiving-NSKeyedArc" font-family="SFUIDisplay-Medium, SF UI Display" font-size="16" font-weight="400" fill="#FFFFFF">
                    <tspan x="49.9609375" y="23">Archiving</tspan>
                    <tspan x="117.039062" y="23" font-family="SFUIDisplay-Light, SF UI Display" font-size="18" font-weight="300"></tspan>
                    <tspan x="9.78320312" y="42" font-family="SFUIDisplay-Light, SF UI Display" font-size="12" font-weight="300">NSKeyedArchiver or Codable</tspan>
                </text>
            </g>
        </g>
        <g id="Group-13" transform="translate(435.000000, 40.000000)">
            <path d="M5,0 C27.820303,32.6275467 43.0017046,57.5687005 50.5442048,74.8234612 C58.086705,92.078222 67.2386367,122.803735 78,167" id="Line-5" stroke="#FFFFFF" stroke-linecap="square"></path>
            <path id="Line-5-decoration-1" d="M72.5301177,157.21632 L78,167 L78.3597924,155.796851" stroke="#FFFFFF" stroke-linecap="square"></path>
            <g id="Group-12" transform="translate(0.000000, 52.000000)">
                <ellipse id="Oval-2" fill="#BF4E6C" cx="60" cy="27" rx="60" ry="27"></ellipse>
                <text id="Subclass-NSManagedOb" font-family="SFUIDisplay-Medium, SF UI Display" font-size="16" font-weight="400" fill="#FFFFFF">
                    <tspan x="28.2070312" y="23">Subclass</tspan>
                    <tspan x="92.7929688" y="23" font-size="18"></tspan>
                    <tspan x="12.0664062" y="42" font-family="SFUIDisplay-Light, SF UI Display" font-size="12" font-weight="300">NSManagedObject</tspan>
                </text>
            </g>
        </g>
        <g id="Group-14" transform="translate(366.000000, 40.000000)">
            <path d="M29,0 C24.2827036,31.3919521 24.2827036,59.2252855 29,83.5 C33.7172964,107.774715 45.0506297,135.608048 63,167" id="Line-6" stroke="#FFFFFF" stroke-linecap="square"></path>
            <path id="Line-6-decoration-1" d="M55.0348656,159.113516 L63,167 L60.2435301,156.135292" stroke="#FFFFFF" stroke-linecap="square"></path>
            <g id="Group-11" transform="translate(0.000000, 95.000000)">
                <ellipse id="Oval-3" fill="#BF4E6C" cx="34.5" cy="15.5" rx="34.5" ry="15.5"></ellipse>
                <text id="C-API" font-family="SFUIDisplay-Medium, SF UI Display" font-size="16" font-weight="400" fill="#FFFFFF">
                    <tspan x="15.1289062" y="21">C API</tspan>
                </text>
            </g>
        </g>
        <g id="Group-16" transform="translate(455.000000, 40.000000)">
            <path d="M0.0246198485,0.0544371388 C56.3864348,14.6544212 95.3411901,34.4790991 116.888886,59.528471 C138.436582,84.5778428 151.140286,120.068352 155,166" id="Line-7" stroke="#FFFFFF" stroke-linecap="square"></path>
            <path id="Line-7-decoration-1" d="M151.106181,155.48914 L155,166 L157.085109,154.986721" stroke="#FFFFFF" stroke-linecap="square"></path>
            <g id="Group-15" transform="translate(88.000000, 103.000000)">
                <ellipse id="Oval-4" fill="#BF4E6C" cx="51" cy="21" rx="51" ry="21"></ellipse>
                <text id="Convert-to-CKRecord" font-family="SFUIDisplay-Medium, SF UI Display" font-size="16" font-weight="400" fill="#FFFFFF">
                    <tspan x="14.2148438" y="20">Convert to</tspan>
                    <tspan x="25.71875" y="39" font-family="SFUIDisplay-Light, SF UI Display" font-size="12" font-weight="300">CKRecord</tspan>
                </text>
            </g>
        </g>
        <g id="Group-20" transform="translate(487.000000, 38.000000)">
            <path d="M0.5,0.5 C99.4067665,3.12297741 170.277202,17.2083982 213.111308,42.7562623 C255.945413,68.3041264 276.741644,109.552039 275.5,166.5" id="Line-8" stroke="#FFFFFF" stroke-linecap="square"></path>
            <path id="Line-8-decoration-1" d="M272.736131,155.637172 L275.5,166.5 L278.734705,155.76796" stroke="#FFFFFF" stroke-linecap="square"></path>
            <g id="Group-19" transform="translate(181.000000, 23.000000)">
                <ellipse id="Oval-5" fill="#BF4E6C" cx="51" cy="22.5" rx="51" ry="22.5"></ellipse>
                <text id="Get-through-referenc" font-family="SFUIDisplay-Medium, SF UI Display" font-size="16" font-weight="400" fill="#FFFFFF">
                    <tspan x="9.37109375" y="22">Get through</tspan>
                    <tspan x="27.6835938" y="41" font-family="SFUIDisplay-Light, SF UI Display" font-size="12" font-weight="300">reference</tspan>
                </text>
            </g>
        </g>
        <g id="Group-18" transform="translate(474.000000, 39.000000)">
            <path d="M0.00153334731,0.285798588 C68.8876251,18.4810819 119.266484,38.2789454 151.13811,59.679389 C183.009736,81.0798326 202.532808,116.91978 209.707324,167.199231" id="Line-8" stroke="#FFFFFF" stroke-linecap="square"></path>
            <path id="Line-8-decoration-1" d="M205.211778,156.931317 L209.707324,167.199231 L211.151612,156.083745" stroke="#FFFFFF" stroke-linecap="square"></path>
            <g id="Group-17" transform="translate(127.000000, 59.000000)">
                <ellipse id="Oval-6" fill="#BF4E6C" cx="44.5" cy="19.5" rx="44.5" ry="19.5"></ellipse>
                <text id="Subclass-Object" font-family="SFUIDisplay-Medium, SF UI Display" font-size="16" font-weight="400" fill="#FFFFFF">
                    <tspan x="12.2070312" y="18">Subclass</tspan>
                    <tspan x="27.71875" y="37" font-family="SFUIDisplay-Light, SF UI Display" font-size="12" font-weight="300">Object</tspan>
                </text>
            </g>
        </g>
        <g id="Group-22" transform="translate(50.000000, 33.000000)">
            <path d="M289.5,0.5 C199.769055,6.59756214 132.94612,21.4262218 89.0311924,44.985979 C53.4833767,64.0568955 27.3063125,106.561569 10.5,172.5" id="Line" stroke="#FFFFFF" stroke-linecap="square"></path>
            <path id="Line-decoration-1" d="M10.2603534,161.293637 L10.5,172.5 L16.0744727,162.775533" stroke="#FFFFFF" stroke-linecap="square"></path>
            <g id="Group-21" transform="translate(0.000000, 36.000000)">
                <ellipse id="Oval-7" fill="#BF4E6C" cx="50.5" cy="26.5" rx="50.5" ry="26.5"></ellipse>
                <text id="Convert-to-Property" font-family="SFUIDisplay-Medium, SF UI Display" font-size="16" font-weight="400" fill="#FFFFFF">
                    <tspan x="11.2148438" y="25">Convert to</tspan>
                    <tspan x="16.8681641" y="44" font-family="SFUIDisplay-Light, SF UI Display" font-size="12" font-weight="300">Property List</tspan>
                </text>
            </g>
        </g>
        <g id="Database" transform="translate(421.000000, 257.000000)" fill="#F2676B" fill-rule="nonzero">
            <path d="M0.240810811,20.0343243 L0.240810811,27.3972973 C0.406216216,28.0986486 5.48108108,29.3594595 15,29.3594595 C24.5189189,29.3594595 29.5937838,28.0986486 29.7591892,27.3924324 L29.7591892,20.0343243 C27.2489189,21.4264865 19.4732432,21.827027 15,21.827027 C10.5275676,21.827027 2.75189189,21.4264865 0.240810811,20.0343243 Z" id="Shape"></path>
            <path d="M0.240810811,11.6910811 L0.240810811,19.0540541 C0.406216216,19.7554054 5.48108108,21.0162162 15,21.0162162 C24.5189189,21.0162162 29.5937838,19.7554054 29.7591892,19.05 L29.7591892,11.6918919 C27.2489189,13.0832432 19.4732432,13.4837838 15,13.4837838 C10.5275676,13.4837838 2.75189189,13.0832432 0.240810811,11.6910811 Z" id="Shape"></path>
            <path d="M0.240810811,3.34783784 L0.240810811,10.7108108 C0.406216216,11.4121622 5.48108108,12.672973 15,12.672973 C24.5189189,12.672973 29.5937838,11.4121622 29.7591892,10.7059459 L29.7591892,3.34783784 C27.2489189,4.74 19.4732432,5.14054054 15,5.14054054 C10.5275676,5.14054054 2.75189189,4.74 0.240810811,3.34783784 Z" id="Shape"></path>
            <path d="M15,0.405405405 C5.48351351,0.405405405 0.409459459,1.66540541 0.240810811,2.37081081 L0.240810811,2.37162162 C0.409459459,3.06891892 5.4827027,4.32972973 15,4.32972973 C24.5205405,4.32972973 29.5937838,3.06891892 29.7591892,2.3627027 C29.5937838,1.66621622 24.5189189,0.405405405 15,0.405405405 Z" id="Shape"></path>
            <path d="M15,37.7027027 C24.5189189,37.7027027 29.5937838,36.4418919 29.7591892,35.7356757 L29.7591892,28.3775676 C27.2489189,29.7697297 19.4732432,30.1702703 15,30.1702703 C10.5275676,30.1702703 2.75189189,29.7697297 0.240810811,28.3775676 L0.240810811,35.7405405 C0.406216216,36.4418919 5.48108108,37.7027027 15,37.7027027 Z" id="Shape"></path>
        </g>
        <g id="Database" transform="translate(592.000000, 257.000000)" fill="#F2676B" fill-rule="nonzero">
            <path d="M0.240810811,20.0343243 L0.240810811,27.3972973 C0.406216216,28.0986486 5.48108108,29.3594595 15,29.3594595 C24.5189189,29.3594595 29.5937838,28.0986486 29.7591892,27.3924324 L29.7591892,20.0343243 C27.2489189,21.4264865 19.4732432,21.827027 15,21.827027 C10.5275676,21.827027 2.75189189,21.4264865 0.240810811,20.0343243 Z" id="Shape"></path>
            <path d="M0.240810811,11.6910811 L0.240810811,19.0540541 C0.406216216,19.7554054 5.48108108,21.0162162 15,21.0162162 C24.5189189,21.0162162 29.5937838,19.7554054 29.7591892,19.05 L29.7591892,11.6918919 C27.2489189,13.0832432 19.4732432,13.4837838 15,13.4837838 C10.5275676,13.4837838 2.75189189,13.0832432 0.240810811,11.6910811 Z" id="Shape"></path>
            <path d="M0.240810811,3.34783784 L0.240810811,10.7108108 C0.406216216,11.4121622 5.48108108,12.672973 15,12.672973 C24.5189189,12.672973 29.5937838,11.4121622 29.7591892,10.7059459 L29.7591892,3.34783784 C27.2489189,4.74 19.4732432,5.14054054 15,5.14054054 C10.5275676,5.14054054 2.75189189,4.74 0.240810811,3.34783784 Z" id="Shape"></path>
            <path d="M15,0.405405405 C5.48351351,0.405405405 0.409459459,1.66540541 0.240810811,2.37081081 L0.240810811,2.37162162 C0.409459459,3.06891892 5.4827027,4.32972973 15,4.32972973 C24.5205405,4.32972973 29.5937838,3.06891892 29.7591892,2.3627027 C29.5937838,1.66621622 24.5189189,0.405405405 15,0.405405405 Z" id="Shape"></path>
            <path d="M15,37.7027027 C24.5189189,37.7027027 29.5937838,36.4418919 29.7591892,35.7356757 L29.7591892,28.3775676 C27.2489189,29.7697297 19.4732432,30.1702703 15,30.1702703 C10.5275676,30.1702703 2.75189189,29.7697297 0.240810811,28.3775676 L0.240810811,35.7405405 C0.406216216,36.4418919 5.48108108,37.7027027 15,37.7027027 Z" id="Shape"></path>
        </g>
        <g id="Database" transform="translate(502.000000, 257.000000)" fill="#F2676B" fill-rule="nonzero">
            <path d="M0.240810811,20.0343243 L0.240810811,27.3972973 C0.406216216,28.0986486 5.48108108,29.3594595 15,29.3594595 C24.5189189,29.3594595 29.5937838,28.0986486 29.7591892,27.3924324 L29.7591892,20.0343243 C27.2489189,21.4264865 19.4732432,21.827027 15,21.827027 C10.5275676,21.827027 2.75189189,21.4264865 0.240810811,20.0343243 Z" id="Shape"></path>
            <path d="M0.240810811,11.6910811 L0.240810811,19.0540541 C0.406216216,19.7554054 5.48108108,21.0162162 15,21.0162162 C24.5189189,21.0162162 29.5937838,19.7554054 29.7591892,19.05 L29.7591892,11.6918919 C27.2489189,13.0832432 19.4732432,13.4837838 15,13.4837838 C10.5275676,13.4837838 2.75189189,13.0832432 0.240810811,11.6910811 Z" id="Shape"></path>
            <path d="M0.240810811,3.34783784 L0.240810811,10.7108108 C0.406216216,11.4121622 5.48108108,12.672973 15,12.672973 C24.5189189,12.672973 29.5937838,11.4121622 29.7591892,10.7059459 L29.7591892,3.34783784 C27.2489189,4.74 19.4732432,5.14054054 15,5.14054054 C10.5275676,5.14054054 2.75189189,4.74 0.240810811,3.34783784 Z" id="Shape"></path>
            <path d="M15,0.405405405 C5.48351351,0.405405405 0.409459459,1.66540541 0.240810811,2.37081081 L0.240810811,2.37162162 C0.409459459,3.06891892 5.4827027,4.32972973 15,4.32972973 C24.5205405,4.32972973 29.5937838,3.06891892 29.7591892,2.3627027 C29.5937838,1.66621622 24.5189189,0.405405405 15,0.405405405 Z" id="Shape"></path>
            <path d="M15,37.7027027 C24.5189189,37.7027027 29.5937838,36.4418919 29.7591892,35.7356757 L29.7591892,28.3775676 C27.2489189,29.7697297 19.4732432,30.1702703 15,30.1702703 C10.5275676,30.1702703 2.75189189,29.7697297 0.240810811,28.3775676 L0.240810811,35.7405405 C0.406216216,36.4418919 5.48108108,37.7027027 15,37.7027027 Z" id="Shape"></path>
        </g>
        <g id="Database" transform="translate(667.000000, 257.000000)" fill="#F2676B" fill-rule="nonzero">
            <path d="M0.240810811,20.0343243 L0.240810811,27.3972973 C0.406216216,28.0986486 5.48108108,29.3594595 15,29.3594595 C24.5189189,29.3594595 29.5937838,28.0986486 29.7591892,27.3924324 L29.7591892,20.0343243 C27.2489189,21.4264865 19.4732432,21.827027 15,21.827027 C10.5275676,21.827027 2.75189189,21.4264865 0.240810811,20.0343243 Z" id="Shape"></path>
            <path d="M0.240810811,11.6910811 L0.240810811,19.0540541 C0.406216216,19.7554054 5.48108108,21.0162162 15,21.0162162 C24.5189189,21.0162162 29.5937838,19.7554054 29.7591892,19.05 L29.7591892,11.6918919 C27.2489189,13.0832432 19.4732432,13.4837838 15,13.4837838 C10.5275676,13.4837838 2.75189189,13.0832432 0.240810811,11.6910811 Z" id="Shape"></path>
            <path d="M0.240810811,3.34783784 L0.240810811,10.7108108 C0.406216216,11.4121622 5.48108108,12.672973 15,12.672973 C24.5189189,12.672973 29.5937838,11.4121622 29.7591892,10.7059459 L29.7591892,3.34783784 C27.2489189,4.74 19.4732432,5.14054054 15,5.14054054 C10.5275676,5.14054054 2.75189189,4.74 0.240810811,3.34783784 Z" id="Shape"></path>
            <path d="M15,0.405405405 C5.48351351,0.405405405 0.409459459,1.66540541 0.240810811,2.37081081 L0.240810811,2.37162162 C0.409459459,3.06891892 5.4827027,4.32972973 15,4.32972973 C24.5205405,4.32972973 29.5937838,3.06891892 29.7591892,2.3627027 C29.5937838,1.66621622 24.5189189,0.405405405 15,0.405405405 Z" id="Shape"></path>
            <path d="M15,37.7027027 C24.5189189,37.7027027 29.5937838,36.4418919 29.7591892,35.7356757 L29.7591892,28.3775676 C27.2489189,29.7697297 19.4732432,30.1702703 15,30.1702703 C10.5275676,30.1702703 2.75189189,29.7697297 0.240810811,28.3775676 L0.240810811,35.7405405 C0.406216216,36.4418919 5.48108108,37.7027027 15,37.7027027 Z" id="Shape"></path>
        </g>
        <g id="Database" transform="translate(743.000000, 257.000000)" fill="#F2676B" fill-rule="nonzero">
            <path d="M0.240810811,20.0343243 L0.240810811,27.3972973 C0.406216216,28.0986486 5.48108108,29.3594595 15,29.3594595 C24.5189189,29.3594595 29.5937838,28.0986486 29.7591892,27.3924324 L29.7591892,20.0343243 C27.2489189,21.4264865 19.4732432,21.827027 15,21.827027 C10.5275676,21.827027 2.75189189,21.4264865 0.240810811,20.0343243 Z" id="Shape"></path>
            <path d="M0.240810811,11.6910811 L0.240810811,19.0540541 C0.406216216,19.7554054 5.48108108,21.0162162 15,21.0162162 C24.5189189,21.0162162 29.5937838,19.7554054 29.7591892,19.05 L29.7591892,11.6918919 C27.2489189,13.0832432 19.4732432,13.4837838 15,13.4837838 C10.5275676,13.4837838 2.75189189,13.0832432 0.240810811,11.6910811 Z" id="Shape"></path>
            <path d="M0.240810811,3.34783784 L0.240810811,10.7108108 C0.406216216,11.4121622 5.48108108,12.672973 15,12.672973 C24.5189189,12.672973 29.5937838,11.4121622 29.7591892,10.7059459 L29.7591892,3.34783784 C27.2489189,4.74 19.4732432,5.14054054 15,5.14054054 C10.5275676,5.14054054 2.75189189,4.74 0.240810811,3.34783784 Z" id="Shape"></path>
            <path d="M15,0.405405405 C5.48351351,0.405405405 0.409459459,1.66540541 0.240810811,2.37081081 L0.240810811,2.37162162 C0.409459459,3.06891892 5.4827027,4.32972973 15,4.32972973 C24.5205405,4.32972973 29.5937838,3.06891892 29.7591892,2.3627027 C29.5937838,1.66621622 24.5189189,0.405405405 15,0.405405405 Z" id="Shape"></path>
            <path d="M15,37.7027027 C24.5189189,37.7027027 29.5937838,36.4418919 29.7591892,35.7356757 L29.7591892,28.3775676 C27.2489189,29.7697297 19.4732432,30.1702703 15,30.1702703 C10.5275676,30.1702703 2.75189189,29.7697297 0.240810811,28.3775676 L0.240810811,35.7405405 C0.406216216,36.4418919 5.48108108,37.7027027 15,37.7027027 Z" id="Shape"></path>
        </g>
        <path d="M193.722222,309 C200.932544,309 206.777778,314.77011 206.777256,321.91354 C206.7642,322.171811 206.730256,323.045086 206.7125,323.188913 C206.635211,323.615756 206.684822,323.354392 206.556356,323.971458 C209.907456,325.189094 211.714344,328.311542 212,331.682466 C212,336.237517 208.257233,339.971361 203.644444,339.971361 C203.644444,340.035799 174.922222,339.971361 174.922222,339.971361 C174.922222,339.971361 173.113244,339.920325 172.944044,339.925996 C172.903311,339.927542 172.903311,339.927542 172.833333,339.930635 C168.507244,339.930635 165,336.468466 165,332.190759 C165.111756,329.286888 166.717067,326.520658 169.438367,325.273638 C169.227389,324.378712 169.292144,324.790605 169.212767,324.042599 C169.200756,323.88743 169.194489,323.77144 169.179867,323.489972 C169.179344,323.475022 169.179344,323.475022 169.177778,323.434296 C169.177778,319.73293 172.217111,316.732659 175.967189,316.732659 C178.396567,316.83009 179.351189,317.496645 181.031178,319.083903 C182.807256,312.902415 187.283744,309.569124 193.696111,309.000516 L193.722222,309 Z" id="Cloud" fill="#325983" fill-rule="nonzero"></path>
        <path d="M611.722222,309 C618.932544,309 624.777778,314.77011 624.777256,321.91354 C624.7642,322.171811 624.730256,323.045086 624.7125,323.188913 C624.635211,323.615756 624.684822,323.354392 624.556356,323.971458 C627.907456,325.189094 629.714344,328.311542 630,331.682466 C630,336.237517 626.257233,339.971361 621.644444,339.971361 C621.644444,340.035799 592.922222,339.971361 592.922222,339.971361 C592.922222,339.971361 591.113244,339.920325 590.944044,339.925996 C590.903311,339.927542 590.903311,339.927542 590.833333,339.930635 C586.507244,339.930635 583,336.468466 583,332.190759 C583.111756,329.286888 584.717067,326.520658 587.438367,325.273638 C587.227389,324.378712 587.292144,324.790605 587.212767,324.042599 C587.200756,323.88743 587.194489,323.77144 587.179867,323.489972 C587.179344,323.475022 587.179344,323.475022 587.177778,323.434296 C587.177778,319.73293 590.217111,316.732659 593.967189,316.732659 C596.396567,316.83009 597.351189,317.496645 599.031178,319.083903 C600.807256,312.902415 605.283744,309.569124 611.696111,309.000516 L611.722222,309 Z" id="Cloud" fill="#325983" fill-rule="nonzero"></path>
        <path d="M763.722222,309 C770.932544,309 776.777778,314.77011 776.777256,321.91354 C776.7642,322.171811 776.730256,323.045086 776.7125,323.188913 C776.635211,323.615756 776.684822,323.354392 776.556356,323.971458 C779.907456,325.189094 781.714344,328.311542 782,331.682466 C782,336.237517 778.257233,339.971361 773.644444,339.971361 C773.644444,340.035799 744.922222,339.971361 744.922222,339.971361 C744.922222,339.971361 743.113244,339.920325 742.944044,339.925996 C742.903311,339.927542 742.903311,339.927542 742.833333,339.930635 C738.507244,339.930635 735,336.468466 735,332.190759 C735.111756,329.286888 736.717067,326.520658 739.438367,325.273638 C739.227389,324.378712 739.292144,324.790605 739.212767,324.042599 C739.200756,323.88743 739.194489,323.77144 739.179867,323.489972 C739.179344,323.475022 739.179344,323.475022 739.177778,323.434296 C739.177778,319.73293 742.217111,316.732659 745.967189,316.732659 C748.396567,316.83009 749.351189,317.496645 751.031178,319.083903 C752.807256,312.902415 757.283744,309.569124 763.696111,309.000516 L763.722222,309 Z" id="Cloud" fill="#325983" fill-rule="nonzero"></path>
        <path d="M687.722222,309 C694.932544,309 700.777778,314.77011 700.777256,321.91354 C700.7642,322.171811 700.730256,323.045086 700.7125,323.188913 C700.635211,323.615756 700.684822,323.354392 700.556356,323.971458 C703.907456,325.189094 705.714344,328.311542 706,331.682466 C706,336.237517 702.257233,339.971361 697.644444,339.971361 C697.644444,340.035799 668.922222,339.971361 668.922222,339.971361 C668.922222,339.971361 667.113244,339.920325 666.944044,339.925996 C666.903311,339.927542 666.903311,339.927542 666.833333,339.930635 C662.507244,339.930635 659,336.468466 659,332.190759 C659.111756,329.286888 660.717067,326.520658 663.438367,325.273638 C663.227389,324.378712 663.292144,324.790605 663.212767,324.042599 C663.200756,323.88743 663.194489,323.77144 663.179867,323.489972 C663.179344,323.475022 663.179344,323.475022 663.177778,323.434296 C663.177778,319.73293 666.217111,316.732659 669.967189,316.732659 C672.396567,316.83009 673.351189,317.496645 675.031178,319.083903 C676.807256,312.902415 681.283744,309.569124 687.696111,309.000516 L687.722222,309 Z" id="Cloud" fill="#325983" fill-rule="nonzero"></path>
        <path d="M175.3125,257.000004 C174.574044,257.005142 174.004506,257.730005 174,258.295457 L174,293.704546 C174.000088,294.382803 174.625319,294.999914 175.3125,295 L200.6875,295 C201.374681,294.999914 201.999912,294.382803 202,293.704546 L202,266.068179 C202,265.728723 201.859956,265.391024 201.617188,265.150566 L193.742188,257.377844 C193.498544,257.138237 193.156419,256.999187 192.8125,257.000004 L175.3125,257.000004 Z M176.625,259.590911 L191.5,259.590911 L191.5,266.068179 C191.500088,266.746462 192.125319,267.363568 192.8125,267.363633 L199.375,267.363633 L199.375,292.409093 L176.625,292.409093 L176.625,259.590911 Z M194.125,261.412643 L197.529275,264.772726 L194.125,264.772726 L194.125,261.412643 Z M180.125,264.340908 C179.40015,264.340908 178.8125,264.920882 178.8125,265.636361 C178.8125,266.351797 179.40015,266.931815 180.125,266.931815 L186.25,266.931815 C186.974894,266.931815 187.5625,266.351797 187.5625,265.636361 C187.5625,264.920882 186.974894,264.340908 186.25,264.340908 L180.125,264.340908 Z M180.125,271.249994 C179.40015,271.249994 178.8125,271.829969 178.8125,272.545448 C178.8125,273.260884 179.40015,273.840902 180.125,273.840902 L195.875,273.840902 C196.599894,273.840902 197.1875,273.260884 197.1875,272.545448 C197.1875,271.829969 196.599894,271.249994 195.875,271.249994 L180.125,271.249994 Z M180.125,278.159102 C179.40015,278.159102 178.8125,278.739077 178.8125,279.454556 C178.8125,280.169992 179.40015,280.750009 180.125,280.750009 L195.875,280.750009 C196.599894,280.750009 197.1875,280.169992 197.1875,279.454556 C197.1875,278.739077 196.599894,278.159102 195.875,278.159102 L180.125,278.159102 Z M180.125,285.068188 C179.40015,285.068188 178.8125,285.648163 178.8125,286.363642 C178.8125,287.079078 179.40015,287.659096 180.125,287.659096 L195.875,287.659096 C196.599894,287.659096 197.1875,287.079078 197.1875,286.363642 C197.1875,285.648163 196.599894,285.068188 195.875,285.068188 L180.125,285.068188 Z" id="Document" fill="#F5CC6F" fill-rule="nonzero"></path>
        <text id="Bytes" font-family="SFUIDisplay-Semibold, SF UI Display" font-size="10" font-weight="500" fill="#FFFFFF">
            <tspan x="44.3027344" y="268">1010010</tspan>
            <tspan x="44.3027344" y="280">0101100</tspan>
            <tspan x="44.3027344" y="292">0101001</tspan>
        </text>
        <path d="M347.3125,257.000004 C346.574044,257.005142 346.004506,257.730005 346,258.295457 L346,293.704546 C346.000088,294.382803 346.625319,294.999914 347.3125,295 L372.6875,295 C373.374681,294.999914 373.999912,294.382803 374,293.704546 L374,266.068179 C374,265.728723 373.859956,265.391024 373.617188,265.150566 L365.742188,257.377844 C365.498544,257.138237 365.156419,256.999187 364.8125,257.000004 L347.3125,257.000004 Z M348.625,259.590911 L363.5,259.590911 L363.5,266.068179 C363.500088,266.746462 364.125319,267.363568 364.8125,267.363633 L371.375,267.363633 L371.375,292.409093 L348.625,292.409093 L348.625,259.590911 Z M366.125,261.412643 L369.529275,264.772726 L366.125,264.772726 L366.125,261.412643 Z M352.125,264.340908 C351.40015,264.340908 350.8125,264.920882 350.8125,265.636361 C350.8125,266.351797 351.40015,266.931815 352.125,266.931815 L358.25,266.931815 C358.974894,266.931815 359.5625,266.351797 359.5625,265.636361 C359.5625,264.920882 358.974894,264.340908 358.25,264.340908 L352.125,264.340908 Z M352.125,271.249994 C351.40015,271.249994 350.8125,271.829969 350.8125,272.545448 C350.8125,273.260884 351.40015,273.840902 352.125,273.840902 L367.875,273.840902 C368.599894,273.840902 369.1875,273.260884 369.1875,272.545448 C369.1875,271.829969 368.599894,271.249994 367.875,271.249994 L352.125,271.249994 Z M352.125,278.159102 C351.40015,278.159102 350.8125,278.739077 350.8125,279.454556 C350.8125,280.169992 351.40015,280.750009 352.125,280.750009 L367.875,280.750009 C368.599894,280.750009 369.1875,280.169992 369.1875,279.454556 C369.1875,278.739077 368.599894,278.159102 367.875,278.159102 L352.125,278.159102 Z M352.125,285.068188 C351.40015,285.068188 350.8125,285.648163 350.8125,286.363642 C350.8125,287.079078 351.40015,287.659096 352.125,287.659096 L367.875,287.659096 C368.599894,287.659096 369.1875,287.079078 369.1875,286.363642 C369.1875,285.648163 368.599894,285.068188 367.875,285.068188 L352.125,285.068188 Z" id="Document" fill="#F5CC6F" fill-rule="nonzero"></path>
        <text id="Bytes" font-family="SFUIDisplay-Semibold, SF UI Display" font-size="10" font-weight="500" fill="#FFFFFF">
            <tspan x="277.302734" y="268">1010010</tspan>
            <tspan x="277.302734" y="280">0101100</tspan>
            <tspan x="277.302734" y="292">0101001</tspan>
        </text>
        <path d="M0,367 L800,367 L800,436 L0,436 L0,367 Z" id="Rectangle" stroke="#C7DAEC" stroke-width="6" fill="#C7DAEC" stroke-dasharray="17,10"></path>
        <g id="Group-26" transform="translate(44.000000, 386.000000)" fill="#FFFFFF" font-family="SFUIDisplay-Semibold, SF UI Display" font-weight="500">
            <text id="Bytes" font-size="10">
                <tspan x="0.302734375" y="10">1010010</tspan>
                <tspan x="0.302734375" y="22">0101100</tspan>
                <tspan x="0.302734375" y="34">0101001</tspan>
            </text>
            <text id="Petite-quantité-de-d" font-size="15">
                <tspan x="50" y="23">Petite quantité de données</tspan>
            </text>
        </g>
        <g id="Group-25" transform="translate(326.666667, 385.000000)" fill="#F5CC6F">
            <path d="M1.3125,3.5726734e-06 C0.57404375,0.00514220563 0.00450625,0.73000468 0,1.29545726 L0,36.7045463 C8.75e-05,37.3828027 0.62531875,37.9999136 1.3125,38 L26.6875,38 C27.3746813,37.9999136 27.9999125,37.3828027 28,36.7045463 L28,9.06817939 C28,8.72872302 27.8599563,8.39102415 27.6171875,8.15056636 L19.7421875,0.377844232 C19.4985437,0.138237117 19.1564188,-0.00081256315 18.8125,3.5726734e-06 L1.3125,3.5726734e-06 Z M2.625,2.59091095 L17.5,2.59091095 L17.5,9.06817939 C17.5000875,9.74646166 18.1253187,10.3635683 18.8125,10.3636331 L25.375,10.3636331 L25.375,35.4090926 L2.625,35.4090926 L2.625,2.59091095 Z M20.125,4.4126427 L23.529275,7.7727257 L20.125,7.7727257 L20.125,4.4126427 Z M6.125,7.3409078 C5.40015,7.3409078 4.8125,7.92088242 4.8125,8.63636149 C4.8125,9.35179738 5.40015,9.93181518 6.125,9.93181518 L12.25,9.93181518 C12.9748937,9.93181518 13.5625,9.35179738 13.5625,8.63636149 C13.5625,7.92088242 12.9748937,7.3409078 12.25,7.3409078 L6.125,7.3409078 Z M6.125,14.2499941 C5.40015,14.2499941 4.8125,14.8299688 4.8125,15.5454478 C4.8125,16.2608837 5.40015,16.8409015 6.125,16.8409015 L21.875,16.8409015 C22.5998937,16.8409015 23.1875,16.2608837 23.1875,15.5454478 C23.1875,14.8299688 22.5998937,14.2499941 21.875,14.2499941 L6.125,14.2499941 Z M6.125,21.1591021 C5.40015,21.1591021 4.8125,21.7390767 4.8125,22.4545557 C4.8125,23.1699916 5.40015,23.7500094 6.125,23.7500094 L21.875,23.7500094 C22.5998937,23.7500094 23.1875,23.1699916 23.1875,22.4545557 C23.1875,21.7390767 22.5998937,21.1591021 21.875,21.1591021 L6.125,21.1591021 Z M6.125,28.0681884 C5.40015,28.0681884 4.8125,28.648163 4.8125,29.3636421 C4.8125,30.079078 5.40015,30.6590958 6.125,30.6590958 L21.875,30.6590958 C22.5998937,30.6590958 23.1875,30.079078 23.1875,29.3636421 C23.1875,28.648163 22.5998937,28.0681884 21.875,28.0681884 L6.125,28.0681884 Z" id="Document" fill-rule="nonzero"></path>
            <text id="Fichiers" font-family="SFUIDisplay-Semibold, SF UI Display" font-size="15" font-weight="500">
                <tspan x="38" y="24">Fichiers</tspan>
            </text>
        </g>
        <g id="Group-23" transform="translate(616.000000, 386.000000)" fill="#F2676B">
            <g id="Database" fill-rule="nonzero">
                <path d="M0.240810811,20.0343243 L0.240810811,27.3972973 C0.406216216,28.0986486 5.48108108,29.3594595 15,29.3594595 C24.5189189,29.3594595 29.5937838,28.0986486 29.7591892,27.3924324 L29.7591892,20.0343243 C27.2489189,21.4264865 19.4732432,21.827027 15,21.827027 C10.5275676,21.827027 2.75189189,21.4264865 0.240810811,20.0343243 Z" id="Shape"></path>
                <path d="M0.240810811,11.6910811 L0.240810811,19.0540541 C0.406216216,19.7554054 5.48108108,21.0162162 15,21.0162162 C24.5189189,21.0162162 29.5937838,19.7554054 29.7591892,19.05 L29.7591892,11.6918919 C27.2489189,13.0832432 19.4732432,13.4837838 15,13.4837838 C10.5275676,13.4837838 2.75189189,13.0832432 0.240810811,11.6910811 Z" id="Shape"></path>
                <path d="M0.240810811,3.34783784 L0.240810811,10.7108108 C0.406216216,11.4121622 5.48108108,12.672973 15,12.672973 C24.5189189,12.672973 29.5937838,11.4121622 29.7591892,10.7059459 L29.7591892,3.34783784 C27.2489189,4.74 19.4732432,5.14054054 15,5.14054054 C10.5275676,5.14054054 2.75189189,4.74 0.240810811,3.34783784 Z" id="Shape"></path>
                <path d="M15,0.405405405 C5.48351351,0.405405405 0.409459459,1.66540541 0.240810811,2.37081081 L0.240810811,2.37162162 C0.409459459,3.06891892 5.4827027,4.32972973 15,4.32972973 C24.5205405,4.32972973 29.5937838,3.06891892 29.7591892,2.3627027 C29.5937838,1.66621622 24.5189189,0.405405405 15,0.405405405 Z" id="Shape"></path>
                <path d="M15,37.7027027 C24.5189189,37.7027027 29.5937838,36.4418919 29.7591892,35.7356757 L29.7591892,28.3775676 C27.2489189,29.7697297 19.4732432,30.1702703 15,30.1702703 C10.5275676,30.1702703 2.75189189,29.7697297 0.240810811,28.3775676 L0.240810811,35.7405405 C0.406216216,36.4418919 5.48108108,37.7027027 15,37.7027027 Z" id="Shape"></path>
            </g>
            <text id="Base-de-donnée" font-family="SFUIDisplay-Semibold, SF UI Display" font-size="15" font-weight="500">
                <tspan x="40" y="24">Base de donnée</tspan>
            </text>
        </g>
        <g id="Group-24" transform="translate(468.333333, 389.000000)" fill="#325983">
            <path d="M28.7222222,0 C35.9325444,0 41.7777778,5.77010999 41.7772556,12.9135402 C41.7642,13.171811 41.7302556,14.0450859 41.7125,14.1889134 C41.6352111,14.6157561 41.6848222,14.3543923 41.5563556,14.9714585 C44.9074556,16.1890945 46.7143444,19.3115421 47,22.6824658 C47,27.2375173 43.2572333,30.9713605 38.6444444,30.9713605 C38.6444444,31.0357993 9.92222222,30.9713605 9.92222222,30.9713605 C9.92222222,30.9713605 8.11324444,30.920325 7.94404444,30.9259956 C7.90331111,30.9275421 7.90331111,30.9275421 7.83333333,30.9306352 C3.50724444,30.9306352 0,27.4684661 0,23.1907592 C0.111755556,20.2868881 1.71706667,17.5206583 4.43836667,16.2736382 C4.22738889,15.3787118 4.29214444,15.7906048 4.21276667,15.0425989 C4.20075556,14.8874302 4.19448889,14.7714403 4.17986667,14.4899716 C4.17934444,14.4750218 4.17934444,14.4750218 4.17777778,14.4342964 C4.17777778,10.7329304 7.21711111,7.7326588 10.9671889,7.7326588 C13.3965667,7.8300903 14.3511889,8.49664549 16.0311778,10.0839026 C17.8072556,3.90241514 22.2837444,0.569123687 28.6961111,0.000515510586 L28.7222222,0 Z" id="Cloud" fill-rule="nonzero"></path>
            <text id="Cloud" font-family="SFUIDisplay-Semibold, SF UI Display" font-size="15" font-weight="500">
                <tspan x="57" y="20">Cloud</tspan>
            </text>
        </g>
    </g>
</svg>