<?xml version="1.0" encoding="UTF-8"?>
<svg width="800px" height="348px" viewBox="0 0 800 348" version="1.1" xmlns="http://www.w3.org/2000/svg" xmlns:xlink="http://www.w3.org/1999/xlink" style="background: #FFFFFF;">
    <!-- Generator: Sketch 43.2 (39069) - http://www.bohemiancoding.com/sketch -->
    <title>Emploi Garantie</title>
    <desc>Created with Sketch.</desc>
    <defs></defs>
    <g id="Chapitre-9" stroke="none" stroke-width="1" fill="none" fill-rule="evenodd">
        <g id="Emploi-Garantie" fill-rule="nonzero">
            <g id="job-guarantee-logo" transform="translate(262.000000, 20.000000)">
                <path d="M251.63,235.68 C259.2,231.31 265.39,220.59 265.39,211.85 L265.39,96.53 C265.39,87.79 259.2,77.07 251.63,72.7 L151.75,15 C144.18,10.63 131.8,10.63 124.24,15 L24.37,72.7 C16.8,77.07 10.61,87.79 10.61,96.53 L10.61,211.85 C10.61,220.59 16.8,231.31 24.37,235.68 L124.25,293.34 C131.82,297.71 144.2,297.71 151.76,293.34 L251.63,235.68 L251.63,235.68 Z" id="Shape" fill="#FFFFFF"></path>
                <path d="M138,298.5 C132.878638,298.604875 127.815334,297.400146 123.29,295 L23.41,237.33 C15.3,232.65 8.7,221.22 8.7,211.85 L8.7,96.53 C8.7,87.17 15.3,75.74 23.41,71.05 L123.29,13.39 C131.4,8.71 144.6,8.71 152.71,13.39 L252.59,71.05 C260.7,75.73 267.3,87.16 267.3,96.53 L267.3,211.85 C267.3,221.21 260.7,232.64 252.59,237.33 L152.71,295 C148.184666,297.400146 143.121362,298.604875 138,298.5 L138,298.5 Z M138,13.68 C133.548164,13.5802663 129.143895,14.6125169 125.2,16.68 L25.32,74.35 C18.38,78.35 12.52,88.51 12.52,96.52 L12.52,211.85 C12.52,219.85 18.38,230.02 25.32,234.02 L125.2,291.68 C132.14,295.68 143.87,295.68 150.81,291.68 L250.67,234 C257.61,230 263.47,219.84 263.47,211.83 L263.47,96.53 C263.47,88.53 257.61,78.36 250.67,74.36 L150.8,16.69 C146.857022,14.6190486 142.452704,13.5833456 138,13.68 L138,13.68 Z" id="Shape" fill="#585856"></path>
                <path d="M138,308 C132.734815,308.1039 127.53034,306.861297 122.88,304.39 L15.47,242.39 C7.13,237.58 0.35,225.83 0.35,216.2 L0.35,92.2 C0.35,82.57 7.13,70.82 15.47,66.01 L122.87,4 C131.21,-0.81 144.78,-0.81 153.12,4 L260.53,66 C268.87,70.81 275.65,82.56 275.65,92.19 L275.65,216.19 C275.65,225.82 268.87,237.57 260.53,242.38 L153.12,304.38 C148.470585,306.854769 143.266059,308.100826 138,308 Z M138,1.64 C132.964902,1.54032024 127.987725,2.727821 123.54,5.09 L16.13,67.09 C8.13,71.69 1.67,82.93 1.67,92.14 L1.67,216.14 C1.67,225.35 8.16,236.59 16.13,241.19 L123.54,303.19 C131.54,307.79 144.54,307.79 152.47,303.19 L259.88,241.19 C267.88,236.59 274.34,225.35 274.34,216.14 L274.34,92.14 C274.34,82.93 267.85,71.69 259.88,67.09 L152.47,5.09 C148.017453,2.7331042 143.036722,1.55246107 138,1.66 L138,1.64 L138,1.64 Z" id="Shape" fill="#585856"></path>
                <path d="M70.12,137.33 L70.12,141.81 L51.86,141.81 L51.86,115.51 L69.78,115.51 L69.78,120 L57,120 L57,126.33 L68,126.33 L68,130.48 L57,130.48 L57,137.33 L70.12,137.33 Z M103,141.81 L103,124.4 L96.22,137.4 L93.41,137.4 L86.63,124.4 L86.63,141.81 L81.52,141.81 L81.52,115.51 L87,115.51 L94.78,130.51 L102.63,115.51 L108.07,115.51 L108.07,141.81 L103,141.81 Z M121,141.81 L121,115.51 L132.15,115.51 C133.310544,115.499654 134.457535,115.759867 135.5,116.27 C136.504054,116.75952 137.403921,117.438664 138.15,118.27 C138.890734,119.097055 139.47976,120.048298 139.89,121.08 C140.301524,122.086434 140.515418,123.162691 140.52,124.25 C140.521353,125.356835 140.321434,126.454691 139.93,127.49 C139.548432,128.517216 138.982482,129.466115 138.26,130.29 C137.539997,131.124108 136.659083,131.80435 135.67,132.29 C134.631576,132.789174 133.492105,133.04239 132.34,133.03 L126.12,133.03 L126.12,141.84 L121,141.81 L121,141.81 Z M126.11,128.51 L132,128.51 C132.92049,128.517099 133.790805,128.0912 134.35,127.36 C135.019149,126.466049 135.351963,125.36493 135.29,124.25 C135.298376,123.636893 135.196769,123.02725 134.99,122.45 C134.812829,121.956973 134.548645,121.499731 134.21,121.1 C133.901906,120.740404 133.515288,120.456428 133.08,120.27 C132.667069,120.088087 132.221217,119.99279 131.77,119.99 L126.07,119.99 L126.11,128.51 L126.11,128.51 Z M151.45,141.81 L151.45,115.51 L156.56,115.51 L156.56,137.33 L170,137.33 L170,141.81 L151.45,141.81 Z M190,142 C188.190472,142.023265 186.399116,141.636961 184.76,140.87 C183.243234,140.141329 181.884219,139.122067 180.76,137.87 C178.496507,135.338285 177.237381,132.065979 177.22,128.67 C177.225709,126.954232 177.565359,125.255982 178.22,123.67 C178.852492,122.097131 179.767574,120.653334 180.92,119.41 C182.076505,118.167761 183.466265,117.165367 185.01,116.46 C186.626487,115.724994 188.384338,115.352944 190.16,115.37 C191.96,115.35 193.742,115.75 195.36,116.54 C196.88005,117.289511 198.238878,118.329014 199.36,119.6 C200.473931,120.866623 201.351203,122.323098 201.95,123.9 C202.559526,125.458523 202.874853,127.116534 202.88,128.79 C202.872264,130.505563 202.532691,132.203428 201.88,133.79 C201.257274,135.348988 200.352107,136.779626 199.21,138.01 C198.059279,139.244885 196.676195,140.240569 195.14,140.94 C193.524448,141.663877 191.770126,142.025663 190,142 L190,142 Z M182.37,128.67 C182.367477,129.790597 182.542998,130.90448 182.89,131.97 C183.214905,132.990113 183.723231,133.942376 184.39,134.78 C185.042552,135.609894 185.864033,136.291621 186.8,136.78 C188.857957,137.781503 191.262043,137.781503 193.32,136.78 C194.255797,136.291367 195.077229,135.60968 195.73,134.78 C196.388097,133.932439 196.88932,132.974019 197.21,131.95 C197.54,130.916 197.71,129.836 197.71,128.75 C197.711671,127.627872 197.529248,126.513069 197.17,125.45 C196.833885,124.427595 196.319264,123.472836 195.65,122.63 C194.995385,121.817688 194.17339,121.155999 193.24,120.69 C191.185556,119.703796 188.794444,119.703796 186.74,120.69 C185.801615,121.174733 184.979415,121.857057 184.33,122.69 C183.68108,123.533015 183.186763,124.484405 182.87,125.5 C182.557066,126.523858 182.401953,127.589417 182.41,128.66 L182.37,128.67 Z M214.23,141.81 L214.23,115.51 L219.34,115.51 L219.34,141.81 L214.23,141.81 Z M53.06,194.13 C51.1559464,196.146384 48.5032988,197.286335 45.73,197.28 C44.0535033,197.302225 42.3920829,196.961071 40.86,196.28 C39.3490347,195.607856 37.9887184,194.638631 36.86,193.43 C35.7108817,192.182321 34.8053066,190.730688 34.19,189.15 C33.518618,187.457195 33.1791171,185.65105 33.19,183.83 C33.1714442,180.377359 34.4902792,177.051601 36.87,174.55 C38.0458275,173.330029 39.4488037,172.351682 41,171.67 C42.5942627,170.956657 44.3234863,170.595123 46.07,170.61 C48.2884883,170.549043 50.4823023,171.087996 52.42,172.17 C54.1335029,173.14207 55.5242449,174.595396 56.42,176.35 L52.6,179.17 C51.9832938,177.915511 51.0090284,176.871655 49.8,176.17 C48.609123,175.494052 47.2591765,175.148797 45.89,175.17 C44.8288369,175.156576 43.7797877,175.396555 42.83,175.87 C41.9102958,176.335253 41.1018793,176.993584 40.46,177.8 C39.7907364,178.642836 39.2761145,179.597595 38.94,180.62 C38.5772397,181.706323 38.3948259,182.84472 38.4,183.99 C38.3898691,185.1692 38.5896497,186.340795 38.99,187.45 C39.3555683,188.476073 39.9082455,189.425457 40.62,190.25 C41.3038747,191.034592 42.1410401,191.670974 43.08,192.12 C44.0437854,192.582973 45.1008203,192.81901 46.17,192.81 C48.71,192.81 51.007,191.613 53.06,189.22 L53.06,187.37 L47.76,187.37 L47.76,183.63 L57.28,183.63 L57.28,197.15 L53.06,197.15 L53.06,194.13 L53.06,194.13 Z M76.54,170.8 L81.06,170.8 L91.06,197.1 L85.8,197.1 L83.36,190.54 L74.17,190.54 L71.76,197.1 L66.5,197.1 L76.54,170.8 L76.54,170.8 Z M82.43,186.95 L78.8,176.61 L75,186.94 L82.43,186.95 Z M101.36,197.09 L101.36,170.8 L113,170.8 C114.160544,170.789654 115.307535,171.049867 116.35,171.56 C117.35379,172.04995 118.253579,172.729036 119,173.56 C119.740566,174.38718 120.329573,175.338392 120.74,176.37 C121.151524,177.376434 121.365418,178.452691 121.37,179.54 C121.387908,181.179374 120.944351,182.790732 120.09,184.19 C119.286661,185.53386 118.074131,186.585186 116.63,187.19 L122.63,197.08 L116.89,197.08 L111.52,188.27 L106.52,188.27 L106.52,197.08 L101.36,197.09 L101.36,197.09 Z M106.47,183.79 L112.88,183.79 C113.337575,183.792784 113.788352,183.679229 114.19,183.46 C114.603359,183.23453 114.964545,182.924456 115.25,182.55 C115.557252,182.142353 115.793874,181.686009 115.95,181.2 C116.125947,180.660946 116.213742,180.097029 116.21,179.53 C116.214449,178.949785 116.112777,178.373646 115.91,177.83 C115.725409,177.336163 115.454531,176.879058 115.11,176.48 C114.791198,176.108195 114.399883,175.805351 113.96,175.59 C113.55025,175.383822 113.098678,175.27435 112.64,175.27 L106.45,175.27 L106.47,183.79 L106.47,183.79 Z M140.47,170.8 L145,170.8 L155,197.1 L149.74,197.1 L147.3,190.54 L138.1,190.54 L135.69,197.1 L130.43,197.1 L140.47,170.8 Z M146.36,186.95 L142.73,176.62 L138.95,186.95 L146.36,186.95 Z M170.39,180.24 L170.39,197.09 L165.28,197.09 L165.28,170.8 L169.28,170.8 L182.98,188.06 L182.98,170.83 L188.09,170.83 L188.09,197.09 L183.94,197.09 L170.39,180.24 Z M220.61,175.28 L212.2,175.28 L212.2,197.1 L207.13,197.1 L207.13,175.28 L198.72,175.28 L198.72,170.8 L220.61,170.8 L220.61,175.28 Z M231.28,197.09 L231.28,170.8 L236.39,170.8 L236.39,197.1 L231.28,197.09 Z M34.69,153.79 L235.37,153.79 L235.37,157.83 L34.69,157.83 L34.69,153.79 Z" id="Shape" fill="#585856"></path>
                <circle id="Oval" fill="#585856" cx="134.89" cy="156.22" r="4.8"></circle>
                <g id="Group" transform="translate(108.000000, 226.000000)" fill="#F29222">
                    <path d="M7.77,4.9 L6.65,5.2 L7.12,5.55 L7.77,4.9 Z M13.13,1.34 C12.29,1.62 11.84,1.83 11.73,1.88 L12.95,2.27 L13.13,1.34 L13.13,1.34 Z M21.77,10.38 L21.77,9.55 L19.14,9.55 L19.14,10.31 C20.0045718,10.0798019 20.9168256,10.1006137 21.77,10.37 L21.77,10.38 Z M13.85,4.85 L11.88,4.17 L10.6,5.42 L11.39,7.3 L13.85,4.85 Z M9.93,2 L9.8,0 C8.86639756,0.557003044 8.00635066,1.22891468 7.24,2 L7.37,2.7 L9.93,2 L9.93,2 Z M5.16,5.22 L4.79,3.22 L3.99,3.09 C3.40086136,3.38374035 2.85284378,3.75356817 2.36,4.19 L2.22,4.84 L5.16,5.22 L5.16,5.22 Z M27.5,15.05 L27.5,12.42 L24.87,12.42 L24.87,14.26 C24.909,14.522 24.929,14.786 24.93,15.05 L27.5,15.05 Z M24.87,9.55 L27.5,9.55 L27.5,12.18 L24.87,12.18 L24.87,9.55 Z M27.73,9.55 L30.36,9.55 L30.36,12.18 L27.73,12.18 L27.73,9.55 Z M27.5,6.45 L27.5,5.86 C26.6845976,5.29428053 25.800919,4.83396128 24.87,4.49 L24.87,6.49 L27.5,6.49 L27.5,6.45 L27.5,6.45 Z M27.73,12.42 L30.36,12.42 L30.36,15.05 L27.73,15.05 L27.73,12.42 Z M28.27,6.45 L27.73,6.03 L27.73,6.45 L28.27,6.45 Z M24.87,6.69 L27.5,6.69 L27.5,9.32 L24.87,9.32 L24.87,6.69 Z M27.73,6.69 L27.73,9.32 L30.36,9.32 L30.36,8.74 C29.8409469,7.98064122 29.2296021,7.28867959 28.54,6.68 L27.72,6.68 L27.73,6.69 L27.73,6.69 Z M16.27,12.42 L16.27,12.86 C16.34,12.71 16.41,12.57 16.49,12.42 L16.27,12.42 Z M18.95,10.53 L19.04,9.7 L16.42,9.42 L16.14,12.04 L16.5,12.04 C17.115337,11.2602709 17.9805749,10.7164071 18.95,10.5 L18.95,10.53 Z M24.63,12.42 L24.23,12.42 C24.39,12.7 24.525,12.995 24.63,13.3 L24.63,12.42 Z M24.09,12.19 L24.63,12.19 L24.63,9.56 L22,9.56 L22,10.47 C22.8604397,10.8088889 23.5918853,11.4108441 24.09,12.19 L24.09,12.19 Z M16.5,3.41 L16.98,0.82 L16.74,0.82 C15.921,0.78 15.1,0.82 14.29,0.94 L13.92,2.94 L16.5,3.41 Z M18.909,5.915 L19.253,3.308 L21.86,3.652 L21.516,6.259 L18.909,5.915 Z M14.438,5.966 L16.987,5.317 L17.636,7.867 L15.086,8.515 L14.438,5.966 Z M21.06,9.32 L21.18,9.32 L21.18,6.69 L18.55,6.69 L18.55,9.32 L18.93,9.32 L21.06,9.32 Z M22,6.46 L24.63,6.46 L24.63,4.46 C23.8348398,4.18503058 23.0140438,3.9907197 22.18,3.88 L22,3.88 L22,6.46 Z M22,6.69 L24.63,6.69 L24.63,9.32 L22,9.32 L22,6.69 Z M30.6,15.05 L32.29,15.05 C32.2919102,14.1712898 32.1912287,13.2953609 31.99,12.44 L30.6,12.44 L30.6,15.05 Z M36.09,12.42 L34.09,12.42 C33.8926683,13.28281 33.792048,14.1649143 33.79,15.05 L36.09,15.05 L36.09,12.42 L36.09,12.42 Z M30.6,9.37 L30.76,9.37 L30.6,9.1 L30.6,9.37 Z M30.6,12.19 L31.94,12.19 C31.7016131,11.271273 31.3453203,10.3872634 30.88,9.56 L30.61,9.56 L30.6,12.19 Z M36.09,9 L36.09,8.18 C35.789395,8.57114892 35.5154432,8.98207661 35.27,9.41 L36.09,9.41 L36.09,9 Z M36.09,9.55 L35.16,9.55 C34.716947,10.3809224 34.3809389,11.2646235 34.16,12.18 L36.16,12.18 L36.16,9.55 L36.09,9.55 Z M41.82,6.45 L41.82,4.22 C40.898523,4.49584029 40.0150399,4.88551347 39.19,5.38 L39.19,6.45 L41.82,6.45 Z M36.33,9.55 L38.96,9.55 L38.96,12.18 L36.33,12.18 L36.33,9.55 Z M39.19,9.55 L41.82,9.55 L41.82,12.18 L39.19,12.18 L39.19,9.55 Z M42.06,9.55 L42.06,12 C42.646312,11.0711915 43.6049468,10.4406066 44.69,10.27 L44.69,9.52 L42.06,9.55 Z M44.92,6.69 L47.55,6.69 L47.55,9.32 L44.92,9.32 L44.92,6.69 Z M47.55,3.82 L47.19,3.82 L47.55,3.87 L47.55,3.82 Z M44.92,6.45 L47.55,6.45 L47.55,3.87 L47.19,3.82 L44.92,3.82 L44.92,6.45 Z M50.42,6.45 L50.42,4.74 C49.5816243,4.35409711 48.6980148,4.07523936 47.79,3.91 L47.79,6.45 L50.42,6.45 L50.42,6.45 Z M47.79,6.69 L50.42,6.69 L50.42,9.32 L47.79,9.32 L47.79,6.69 Z M39,9.32 L39,6.69 L37.47,6.69 C37.0762914,7.04652166 36.7086802,7.43084243 36.37,7.84 L36.37,9.32 L39,9.32 L39,9.32 Z M39,5.52 C38.559,5.8 38.138,6.11 37.74,6.45 L39,6.45 L39,5.52 L39,5.52 Z M42.06,6.69 L44.69,6.69 L44.69,9.32 L42.06,9.32 L42.06,6.69 Z M44.69,6.45 L44.69,3.82 L43.69,3.82 C43.1465714,3.8939539 42.6087024,4.00420033 42.08,4.15 L42.08,6.45 L44.69,6.45 L44.69,6.45 Z M39.19,6.69 L41.82,6.69 L41.82,9.32 L39.19,9.32 L39.19,6.69 Z M55.24,9.32 C54.7658103,8.46311195 54.1844713,7.67007144 53.51,6.96 L53.51,9.32 L55.24,9.32 L55.24,9.32 Z M53,6.45 C52.298764,5.80973226 51.5110688,5.27113724 50.66,4.85 L50.66,6.45 L53,6.45 L53,6.45 Z M50.65,9.32 L53.28,9.32 L53.28,6.73 L50.69,6.73 L50.65,9.32 Z M16.27,23.87 L16.27,25.82 C17.1238253,26.1032672 18.0055113,26.294355 18.9,26.39 L18.9,23.87 L16.27,23.87 Z M19.14,23.87 L19.14,26.41 C19.54,26.41 19.94,26.47 20.35,26.47 C20.8244282,26.46891 21.2984515,26.4422045 21.77,26.39 L21.77,23.87 L19.14,23.87 Z M22,23.87 L22,26.36 C22.8968707,26.2457315 23.778697,26.0344955 24.63,25.73 L24.63,23.86 L22,23.86 L22,23.87 L22,23.87 Z M16.76,18.15 L16.27,18.15 L16.27,20.78 L18.9,20.78 L18.9,19.78 C18.03439,19.4778561 17.2857337,18.9111163 16.76,18.16 L16.76,18.15 Z M19.14,19.84 L19.14,20.77 L21.77,20.77 L21.77,19.77 C21.33,19.905 20.87,19.973 20.41,19.97 C19.9808254,19.9725978 19.5533822,19.915381 19.14,19.8 L19.14,19.84 Z M16.27,21.01 L18.9,21.01 L18.9,23.64 L16.27,23.64 L16.27,21.01 Z M19.92,21.01 L19.14,21.01 L19.14,23.64 L21.77,23.64 L21.77,21.01 L21.36,21.01 L19.92,21.01 Z M37.77,23.87 C38.1470712,24.1828489 38.5446232,24.4701554 38.96,24.73 L38.96,23.87 L37.77,23.87 Z M22,19.73 L22,20.73 L24.63,20.73 L24.63,18.1 L24,18.1 C23.5093626,18.8199634 22.8120489,19.3743278 22,19.69 L22,19.73 Z M22,21.01 L24.63,21.01 L24.63,23.64 L22,23.64 L22,21.01 Z M24.87,23.87 L24.87,25.65 C25.8013551,25.2984951 26.6849235,24.8315141 27.5,24.26 L27.5,23.87 L24.87,23.87 L24.87,23.87 Z M27.73,24.09 L28.02,23.87 L27.73,23.87 L27.73,24.09 Z M27.73,18.15 L30.36,18.15 L30.36,20.82 L27.73,20.82 L27.73,18.15 Z M24.87,17.91 L27.5,17.91 L27.5,15.28 L24.93,15.28 C24.9248304,15.5143678 24.9047901,15.7481711 24.87,15.98 L24.87,17.91 L24.87,17.91 Z M27.73,15.28 L30.36,15.28 L30.36,17.91 L27.73,17.91 L27.73,15.28 Z M24.87,21.01 L27.5,21.01 L27.5,23.64 L24.87,23.64 L24.87,21.01 Z M27.73,21 L27.73,23.63 L28.3,23.63 C29.0867587,22.9668049 29.7797636,22.1997898 30.36,21.35 L30.36,21 L27.73,21 Z M36.09,15.28 L33.79,15.28 C33.797,16.165 33.9,17.047 34.1,17.91 L36.1,17.91 L36.09,15.28 Z M24.87,18.15 L27.5,18.15 L27.5,20.78 L24.87,20.78 L24.87,18.15 Z M36.09,18.15 L34.15,18.15 C34.3693751,19.0658597 34.7054571,19.9497555 35.15,20.78 L36.05,20.78 L36.09,18.15 L36.09,18.15 Z M30.6,17.91 L31.94,17.91 C32.16,17.05 32.278,16.167 32.29,15.28 L30.6,15.28 L30.6,17.91 Z M30.6,18.54 L30.6,20.82 L30.71,20.82 C31.2140561,19.9821909 31.6041596,19.0809173 31.87,18.14 L30.6,18.14 L30.6,18.54 L30.6,18.54 Z M35.33,21 C35.56,21.396 35.813,21.776 36.09,22.14 L36.09,21 L35.33,21 Z M39.19,23.87 L39.19,24.87 C40.015,25.36 40.899,25.742 41.82,26.01 L41.82,23.87 L39.19,23.87 Z M42.06,23.87 L42.06,26.07 C42.92,26.299 43.801,26.43 44.69,26.46 L44.69,23.87 L42.06,23.87 L42.06,23.87 Z M39,21 L36.37,21 L36.37,22.42 C36.728,22.853 37.12,23.257 37.54,23.63 L39,23.63 L39,21 Z M36.33,18.15 L38.96,18.15 L38.96,20.78 L36.33,20.78 L36.33,18.15 Z M39.19,18.15 L41.82,18.15 L41.82,20.78 L39.19,20.78 L39.19,18.15 Z M47.79,23.87 L47.79,26.23 C48.6979297,26.0594382 49.5812943,25.777299 50.42,25.39 L50.42,23.87 L47.79,23.87 Z M42.06,21.01 L44.69,21.01 L44.69,23.64 L42.06,23.64 L42.06,21.01 Z M44.69,20.78 L44.69,19.88 C43.6070296,19.7178546 42.6475945,19.0940394 42.06,18.17 L42.06,20.78 L44.69,20.78 L44.69,20.78 Z M36.33,12.42 L38.96,12.42 L38.96,15.05 L36.33,15.05 L36.33,12.42 Z M39.19,21.01 L41.82,21.01 L41.82,23.64 L39.19,23.64 L39.19,21.01 Z M39.19,12.42 L39.19,15.05 L41.19,15.05 C41.1798844,14.1467341 41.3892126,13.2545156 41.8,12.45 L39.17,12.45 L39.19,12.42 L39.19,12.42 Z M36.33,15.28 L38.96,15.28 L38.96,17.91 L36.33,17.91 L36.33,15.28 Z M39.19,15.28 L39.19,17.91 L41.82,17.91 L41.82,17.77 C41.4287557,16.9940606 41.2201057,16.1389372 41.21,15.27 L39.21,15.27 L39.19,15.28 L39.19,15.28 Z M55.32,20.78 L55.44,20.58 L53.52,19.5 L53.52,20.78 L55.32,20.78 Z M53.51,23.18 C54.1409581,22.519492 54.6976156,21.7918133 55.17,21.01 L53.51,21.01 L53.51,23.18 Z M6.94,18.94 L6.13,20.13 C7.0350381,20.4375287 7.97629995,20.6257811 8.93,20.69 L9.12,20.41 L6.94,18.94 L6.94,18.94 Z M6.18,21.85 L7.12,22.44 L6.91,21.86 L6.18,21.85 Z M10.58,20.81 L8.33,22.18 L8.66,22.73 C9.497,23.081 10.373,23.33 11.27,23.47 L11.95,23.06 L10.58,20.81 L10.58,20.81 Z M9.65,18.62 L11.89,17.65 L11.89,15.87 L9.75,15.7 L9.65,18.62 Z M12.66,23.87 L13.17,24.25 L13.17,23.87 L12.66,23.87 Z M11.73,20.55 L14.34,20.83 L14.62,18.2 L12.01,17.91 L11.73,20.55 Z M13.12,21.39 L13.12,23.64 L15.75,23.64 L15.75,21.01 L13.12,21.01 L13.12,21.39 Z M13.41,23.87 L13.41,24.41 C14.2278005,24.9612276 15.1113216,25.4080272 16.04,25.74 L16.04,23.87 L13.41,23.87 L13.41,23.87 Z M2.52,16.23 L2.03,17.93 C2.862,18.105 3.71,18.182 4.56,18.16 L4.96,16.77 L2.52,16.23 L2.52,16.23 Z M4,12.65 L2.89,13.65 C3.21643137,14.3298487 3.63356698,14.9622801 4.13,15.53 L5.48,14.37 L4,12.65 L4,12.65 Z M6.63,11.58 L9.25,11.85 L9.53,9.25 L6.91,8.98 L6.63,11.58 Z M13.38,15.31 L13.38,17.92 L16.01,17.92 L16.01,16.64 C15.8783174,16.2079577 15.8010539,15.7611736 15.78,15.31 L13.38,15.31 L13.38,15.31 Z M16.18,13.17 L16,12.1 L13.39,12.43 L13.72,15.04 L16.12,14.74 C16.0472433,14.2292447 16.0472433,13.7107553 16.12,13.2 L16.18,13.17 Z" id="Shape"></path>
                    <path d="M7.592,14.31 L10.209,14.046 L10.472,16.663 L7.855,16.926 L7.592,14.31 Z M1.39,8.53 L1.04,8.63 C0.558282291,9.17648084 0.352105184,9.91282765 0.48,10.63 L2.67,10.11 L1.39,8.53 L1.39,8.53 Z M5.97,7.07 L5.25,6.92 L4.4,8.65 L7.49,9.37 L7.65,7.42 L7.28,7.35 L5.97,7.07 Z M11.943,8.8 L14.561,8.552 L14.809,11.17 L12.191,11.418 L11.943,8.8 Z M44.92,23.87 L44.92,26.47 L45.11,26.47 C45.927502,26.4718569 46.743712,26.4049545 47.55,26.27 L47.55,23.87 L44.92,23.87 Z M50.65,25.29 C51.416279,24.9111115 52.1318891,24.4373978 52.78,23.88 L50.65,23.88 L50.65,25.29 Z M24.63,17.91 L24.63,16.91 C24.5139367,17.2592468 24.3596688,17.5946117 24.17,17.91 L24.63,17.91 Z M16.27,17.91 L16.61,17.91 C16.4813351,17.7051717 16.3677034,17.4912766 16.27,17.27 L16.27,17.91 L16.27,17.91 Z M47.55,20.78 L47.55,19.32 C46.8714917,19.7375701 46.086467,19.9494572 45.29,19.93 L44.91,19.93 L44.91,20.8 L47.55,20.78 Z M50.42,20.78 L50.42,18.15 L48.79,18.15 C48.5066692,18.5298429 48.1698429,18.8666692 47.79,19.15 L47.79,20.77 L50.42,20.78 L50.42,20.78 Z M44.92,21.01 L47.55,21.01 L47.55,23.64 L44.92,23.64 L44.92,21.01 Z M50.3,23.64 L50.42,23.64 L50.42,21.01 L47.79,21.01 L47.79,23.64 L48.17,23.64 L50.3,23.64 Z M50.65,20.78 L53.28,20.78 L53.28,19.36 L51.13,18.15 L50.65,18.15 L50.65,20.78 Z M50.65,21 L50.65,23.63 L53,23.63 L53.24,23.41 L53.24,21 L50.65,21 Z M49.26,12.91 L50.09,12.42 L49,12.42 C49.1,12.58 49.19,12.74 49.28,12.91 L49.26,12.91 Z M44.92,9.55 L44.92,10.27 L45.3,10.27 C46.0993701,10.2493821 46.8865726,10.4688235 47.56,10.9 L47.56,9.57 L44.92,9.55 L44.92,9.55 Z M50.42,9.55 L47.79,9.55 L47.79,11 C48.182,11.324 48.52,11.71 48.79,12.14 L50.38,12.14 L50.38,9.51 L50.42,9.55 L50.42,9.55 Z M50.42,17.75 L49.42,17.18 C49.273,17.44 49.12,17.687 48.96,17.92 L50.42,17.92 L50.42,17.75 L50.42,17.75 Z M53.51,9.55 L53.51,10.41 L54.98,9.55 L53.51,9.55 Z M50.65,9.56 L50.65,12.09 L53.28,10.55 L53.28,9.55 L50.65,9.56 Z M50.65,17.91 L50.71,17.91 L50.65,17.88 L50.65,17.91 Z M5.93,33.2 C5.93,33.62 6.01,33.92 6.41,33.92 C6.81,33.92 6.89,33.48 6.89,33.2 L6.89,31.81 C6.89,31.53 6.89,31.19 6.43,31.19 C5.97,31.19 5.94,31.65 5.94,31.81 L5.93,33.2 L5.93,33.2 Z M5.03,31.94 C5.00014891,31.5388238 5.12543282,31.1414948 5.38,30.83 C5.6447691,30.5678852 6.0079765,30.4298664 6.38,30.45 C6.76958195,30.4244482 7.15155922,30.5663255 7.43,30.84 C7.705,31.191 7.83,31.637 7.78,32.08 L7.78,33.08 C7.83,33.51 7.707,33.94 7.44,34.28 C7.15373384,34.5551494 6.7665602,34.6998872 6.37,34.68 C5.81769292,34.7227384 5.30689739,34.3849543 5.13,33.86 C5.0599241,33.595816 5.0262795,33.3232947 5.03,33.05 L5.03,31.94 L5.03,31.94 Z M9.64,32.36 C9.865,32.396 10.095,32.396 10.32,32.36 C10.5386732,32.2645313 10.6687688,32.0368641 10.64,31.8 C10.64,31.41 10.49,31.33 10.37,31.28 C10.1291009,31.2143592 9.87753958,31.1973618 9.63,31.23 L9.64,32.36 L9.64,32.36 Z M8.75,30.52 L10.07,30.52 C10.47,30.48 10.872,30.594 11.19,30.84 C11.447,31.087 11.583,31.434 11.56,31.79 C11.5750985,32.1917003 11.377519,32.5716608 11.04,32.79 C10.7563445,32.9366536 10.4389399,33.0056546 10.12,32.99 L9.64,32.99 L9.64,34.49 L8.75,34.49 L8.75,30.52 L8.75,30.52 Z M12.36,30.53 L15.05,30.53 L15.05,31.26 L13.23,31.26 L13.23,32.11 L14.48,32.11 L14.48,32.84 L13.24,32.84 L13.24,33.79 L15.18,33.79 L15.18,34.54 L12.36,34.54 L12.36,30.53 Z M16,30.53 L16.84,30.53 L17.84,32.4 L17.98,32.67 C17.98,32.67 18.05,32.85 18.07,32.88 L18.07,30.53 L18.88,30.53 L18.88,34.53 L18.16,34.53 L17.09,32.58 C16.9763814,32.3664482 16.8761871,32.1460207 16.79,31.92 L16.79,34.53 L16,34.53 L16,30.53 L16,30.53 Z M19.92,31.88 C19.871268,31.4869579 20.0057837,31.0933134 20.284857,30.8122885 C20.5639303,30.5312637 20.9566278,30.3940081 21.35,30.44 C21.6648728,30.432033 21.9737775,30.5268106 22.23,30.71 C22.524,30.998 22.677,31.4 22.65,31.81 L21.77,31.81 C21.77,31.61 21.77,31.18 21.32,31.18 C21.1981641,31.1833204 21.0813656,31.2293319 20.99,31.31 C20.8797472,31.4286879 20.8252038,31.5886818 20.84,31.75 L20.84,33.27 C20.84,33.49 20.84,33.91 21.33,33.91 C21.82,33.91 21.8,33.62 21.8,33.18 L22.69,33.18 C22.7055455,33.3429634 22.7055455,33.5070366 22.69,33.67 C22.648851,33.9554487 22.4982188,34.2136754 22.27,34.39 C22.0152968,34.5686147 21.7110752,34.6630284 21.4,34.66 C21.031972,34.6783212 20.6719018,34.548696 20.4,34.3 C20.24,34.14 20.02,33.91 20.02,33.09 L20.02,31.88 L19.92,31.88 L19.92,31.88 Z M23.53,30.53 L24.42,30.53 L24.42,33.79 L26.19,33.79 L26.19,34.54 L23.53,34.54 L23.53,30.53 Z M28.28,31.24 L27.84,33.05 L28.74,33.05 L28.28,31.24 Z M28.8,30.52 L29.96,34.52 L29.1,34.52 L28.9,33.72 L27.67,33.72 L27.46,34.52 L26.6,34.52 L27.73,30.52 L28.8,30.52 L28.8,30.52 Z M32.42,31.6 C32.2891403,31.3355117 32.0247987,31.163115 31.73,31.15 C31.27,31.15 31.26,31.49 31.26,31.54 C31.26,31.82 31.52,31.94 31.77,32.03 L32.28,32.22 C32.546,32.31 32.781,32.473 32.96,32.69 C33.103,32.895 33.18,33.14 33.18,33.39 C33.2048144,33.8224891 32.9844833,34.2322276 32.61,34.45 C32.3734873,34.5784711 32.1091373,34.6471334 31.84,34.65 C31.223588,34.7275329 30.6269482,34.4009936 30.36,33.84 L31.04,33.39 C31.153083,33.7144545 31.456456,33.9340007 31.8,33.94 C31.9322593,33.9568642 32.065574,33.9179572 32.1680011,33.8326013 C32.2704281,33.7472454 32.3327377,33.6231322 32.34,33.49 C32.34,33.19 32.18,33.12 31.57,32.89 C30.96,32.66 30.44,32.39 30.44,31.6 C30.4396568,31.2668826 30.5837763,30.9499836 30.835066,30.7313039 C31.0863558,30.5126243 31.4201223,30.413653 31.75,30.46 C32.2907365,30.4425873 32.7989515,30.7177112 33.08,31.18 L32.42,31.6 L32.42,31.6 Z M35.76,31.6 C35.6291403,31.3355117 35.3647987,31.163115 35.07,31.15 C34.61,31.15 34.6,31.49 34.6,31.54 C34.6,31.82 34.86,31.94 35.11,32.03 L35.62,32.22 C35.886,32.31 36.121,32.474 36.3,32.69 C36.443,32.895 36.52,33.14 36.52,33.39 C36.5448144,33.8224891 36.3244833,34.2322276 35.95,34.45 C35.7133385,34.5780937 35.4490836,34.6467314 35.18,34.65 C34.563588,34.7275329 33.9669482,34.4009936 33.7,33.84 L34.38,33.39 C34.493083,33.7144545 34.796456,33.9340007 35.14,33.94 C35.2722593,33.9568642 35.405574,33.9179572 35.5080011,33.8326013 C35.6104281,33.7472454 35.6727377,33.6231322 35.68,33.49 C35.68,33.19 35.52,33.12 34.91,32.89 C34.3,32.66 33.78,32.39 33.78,31.6 C33.7796568,31.2668826 33.9237763,30.9499836 34.175066,30.7313039 C34.4263558,30.5126243 34.7601223,30.413653 35.09,30.46 C35.6307365,30.4425873 36.1389515,30.7177112 36.42,31.18 L35.76,31.6 L35.76,31.6 Z M38.11,32.26 C38.342,32.3 38.578,32.3 38.81,32.26 C39.09,32.16 39.11,31.94 39.11,31.72 C39.11,31.5 39.02,31.31 38.85,31.24 C38.6051527,31.1976314 38.3548473,31.1976314 38.11,31.24 L38.11,32.26 L38.11,32.26 Z M38.11,34.54 L37.24,34.54 L37.24,30.54 L38.54,30.54 C39.19,30.54 40.01,30.63 40.01,31.7 C40.0580219,32.1993069 39.7287018,32.6569335 39.24,32.77 L40.12,34.55 L39.12,34.55 L38.36,32.91 L38.07,32.91 L38.11,34.54 Z M41.54,33.2 C41.54,33.62 41.62,33.92 42.02,33.92 C42.42,33.92 42.5,33.48 42.5,33.2 L42.5,31.81 C42.5,31.53 42.5,31.19 42.04,31.19 C41.58,31.19 41.55,31.65 41.55,31.81 L41.54,33.2 L41.54,33.2 Z M40.64,31.94 C40.6101489,31.5388238 40.7354328,31.1414948 40.99,30.83 C41.2547691,30.5678852 41.6179765,30.4298664 41.99,30.45 C42.379582,30.4244482 42.7615592,30.5663255 43.04,30.84 C43.315,31.191 43.44,31.637 43.39,32.08 L43.39,33.08 C43.44,33.51 43.317,33.94 43.05,34.28 C42.7637338,34.5551494 42.3765602,34.6998872 41.98,34.68 C41.4276929,34.7227384 40.9168974,34.3849543 40.74,33.86 C40.6699241,33.595816 40.6362795,33.3232947 40.64,33.05 L40.64,31.94 L40.64,31.94 Z M45.19,33.2 C45.19,33.62 45.27,33.92 45.66,33.92 C46.05,33.92 46.14,33.48 46.14,33.2 L46.14,31.81 C46.14,31.53 46.14,31.19 45.67,31.19 C45.2,31.19 45.18,31.65 45.18,31.81 L45.19,33.2 L45.19,33.2 Z M44.29,31.94 C44.2601489,31.5388238 44.3854328,31.1414948 44.64,30.83 C44.9047691,30.5678852 45.2679765,30.4298664 45.64,30.45 C46.029582,30.4244482 46.4115592,30.5663255 46.69,30.84 C46.964,31.192 47.09,31.637 47.04,32.08 L47.04,33.08 C47.09,33.51 46.967,33.94 46.7,34.28 C46.4143879,34.5561869 46.0267472,34.7010993 45.63,34.68 C45.0786322,34.7191367 44.5698439,34.3826799 44.39,33.86 C44.3206481,33.5956764 44.2870157,33.323254 44.29,33.05 L44.29,31.94 L44.29,31.94 Z M48,30.53 L49.18,30.53 L49.66,32.2 C49.66,32.38 49.73,32.44 49.77,32.62 C49.81,32.8 49.87,33.05 49.89,33.12 C49.947355,32.8031406 50.0207831,32.4894023 50.11,32.18 L50.58,30.52 L51.77,30.52 L51.77,34.52 L51,34.52 L51,31.22 L50.17,34.52 L49.56,34.52 L48.71,31.22 L48.71,34.52 L48,34.52 L48,30.53 Z M54.67,31.6 C54.5391403,31.3355117 54.2747987,31.163115 53.98,31.15 C53.52,31.15 53.51,31.49 53.51,31.54 C53.51,31.82 53.77,31.94 54.02,32.03 L54.53,32.22 C54.796,32.31 55.031,32.474 55.21,32.69 C55.354,32.895 55.43,33.14 55.43,33.39 C55.4548144,33.8224891 55.2344833,34.2322276 54.86,34.45 C54.6233385,34.5780937 54.3590836,34.6467314 54.09,34.65 C53.473588,34.7275329 52.8769482,34.4009936 52.61,33.84 L53.29,33.39 C53.403083,33.7144545 53.706456,33.9340007 54.05,33.94 C54.1806522,33.9538992 54.3112908,33.9136338 54.4114481,33.8285945 C54.5116055,33.7435552 54.5725254,33.6211767 54.58,33.49 C54.58,33.19 54.42,33.12 53.82,32.89 C53.22,32.66 52.69,32.39 52.69,31.6 C52.6896568,31.2668826 52.8337763,30.9499836 53.085066,30.7313039 C53.3363558,30.5126243 53.6701223,30.413653 54,30.46 C54.5407365,30.4425873 55.0489515,30.7177112 55.33,31.18 L54.67,31.6 L54.67,31.6 Z" id="Shape"></path>
                </g>
                <path d="M155.48,71.88 C147.83,71.88 142.66,64.39 142.6,64.29 C141.95,63.4 140.94,62.29 139.9,62.41 C138.86,62.53 137.9,63.89 137.61,64.41 C136.66,66.72 135.35,68.24 133.75,68.85 C132.374184,69.3292832 130.860004,69.2058249 129.58,68.51 C128.282512,67.8541763 127.641986,66.3624234 128.06,64.97 L129.37,60.47 C130.034954,58.2336584 131.652125,56.4042795 133.79,55.47 L138.79,53.29 C140.92,52.35 142.85,52.64 144.98,53.07 L157.98,56.14 C158.279396,56.2162948 158.526714,56.4266991 158.65,56.71 L163.58,68.24 C163.758507,68.6726196 163.613094,69.1711806 163.23,69.44 C160.955081,71.0228823 158.251415,71.874101 155.48,71.88 L155.48,71.88 Z M140,60.45 C141.45,60.45 142.85,61.36 144.17,63.17 C144.5,63.65 151.65,73.97 161.35,68.17 L157,57.83 L144.55,54.88 C142.41,54.44 141.03,54.34 139.55,54.98 L134.55,57.16 C132.93478,57.8747703 131.71656,59.2649304 131.22,60.96 L129.91,65.46 C129.764,65.942 129.977,66.46 130.42,66.7 C131.213679,67.1531342 132.162526,67.2476553 133.03,66.96 C134.11,66.55 135.03,65.4 135.81,63.54 C135.9,63.35 137.3,60.65 139.71,60.45 L140,60.45 L140,60.45 Z" id="Shape" fill="#F29222"></path>
                <path d="M156.82,78.59 C156.507009,78.584517 156.214645,78.4327839 156.03,78.18 L150.7,70.75 C150.480937,70.3915695 150.509236,69.934441 150.770834,69.6057661 C151.032433,69.2770912 151.471556,69.1469456 151.87,69.28 C152.1,69.37 157.61,71.56 161.97,67.79 C162.208764,67.5942449 162.524565,67.5197587 162.82564,67.5881849 C163.126715,67.656611 163.379299,67.8602757 163.51,68.14 L166.24,74.52 C166.342785,74.7741016 166.336761,75.0592551 166.223336,75.3087891 C166.109912,75.5583231 165.899031,75.7503601 165.64,75.84 L157.12,78.55 C157.022609,78.5784765 156.92145,78.5919643 156.82,78.59 L156.82,78.59 Z M153.82,71.79 L157.17,76.46 L164,74.3 L162.19,70.07 C159.725107,71.6805344 156.740726,72.2952812 153.84,71.79 L153.82,71.79 L153.82,71.79 Z M101.94,75.92 C101.816711,75.9190589 101.694659,75.8953265 101.58,75.85 L71.22,63.64 C70.8818199,63.4844787 70.6580059,63.1539953 70.6391036,62.782249 C70.6202012,62.4105026 70.809339,62.0590217 71.13,61.87 L104.93,44.15 C105.193603,44.0297619 105.496397,44.0297619 105.76,44.15 L113.25,47.29 C113.736176,47.5051394 113.96902,48.0630859 113.78,48.56 L102.85,75.32 C102.691903,75.6822687 102.335255,75.9174211 101.94,75.92 Z M73.94,62.61 L101.4,73.67 L111.61,48.67 L105.43,46.08 L73.94,62.61 L73.94,62.61 Z" id="Shape" fill="#F29222"></path>
                <path d="M112.88,75.88 C112.760079,75.877845 112.641525,75.854134 112.53,75.81 L103.08,72.14 C102.689092,71.8795044 102.532195,71.3820382 102.702919,70.9444078 C102.873643,70.5067774 103.325959,70.2469717 103.79,70.32 L112.36,73.65 L120.16,55.42 L111.41,51.74 C111.007888,51.6650331 110.691972,51.3527292 110.612386,50.9515055 C110.5328,50.5502818 110.705591,50.1410389 111.048644,49.9182626 C111.391696,49.6954862 111.835839,49.7040959 112.17,49.94 L121.82,54 C122.312952,54.2193112 122.543049,54.7901302 122.34,55.29 L113.78,75.29 C113.620417,75.6450848 113.269268,75.8752823 112.88,75.88 L112.88,75.88 Z M177.17,77.15 C176.778387,77.1435081 176.426613,76.9089924 176.27,76.55 L165.33,50.63 C165.134638,50.1302399 165.36853,49.5653685 165.86,49.35 L173.28,46.29 C173.549234,46.1635911 173.860766,46.1635911 174.13,46.29 L206,64.05 C206.313714,64.2439516 206.4952,64.5948402 206.472193,64.9629495 C206.449186,65.3310589 206.225422,65.6566194 205.89,65.81 L177.53,77.08 C177.415341,77.1253265 177.293289,77.1490589 177.17,77.15 L177.17,77.15 Z M167.51,50.78 L177.7,74.9 L203.21,64.75 L173.58,48.27 L167.51,50.78 L167.51,50.78 Z" id="Shape" fill="#F29222"></path>
                <path d="M166.23,78 C165.840732,77.9952823 165.489583,77.7650848 165.33,77.41 L156.77,57.41 C156.566951,56.9101302 156.797048,56.3393112 157.29,56.12 L166.94,52 C167.274161,51.7640959 167.718304,51.7554862 168.061356,51.9782626 C168.404409,52.2010389 168.5772,52.6102818 168.497614,53.0115055 C168.418028,53.4127292 168.102112,53.7250331 167.7,53.8 L159,57.51 L166.8,75.74 L175.36,72.41 C175.824041,72.3369717 176.276357,72.5967774 176.447081,73.0344078 C176.617805,73.4720382 176.460908,73.9695044 176.07,74.23 L166.62,77.9 C166.498124,77.9594293 166.365435,77.9934521 166.23,78 L166.23,78 Z M155.79,84.81 C154.701508,84.808765 153.662279,84.3561394 152.92,83.56 L142.84,72.86 C142.500777,72.6299881 142.336248,72.2162697 142.424862,71.8161133 C142.513477,71.4159569 142.837294,71.1103831 143.241912,71.045095 C143.646529,70.979807 144.050023,71.1680237 144.26,71.52 L154.34,82.22 C154.818565,82.7316853 155.529986,82.9556499 156.215366,82.8103902 C156.900747,82.6651305 157.460149,82.1718272 157.69,81.51 C157.878303,80.9799708 157.780026,80.3903078 157.43,79.95 L150.09,70.74 C149.775753,70.4808659 149.650076,70.0570308 149.77227,69.668482 C149.894463,69.2799332 150.240106,69.004322 150.646108,68.9716961 C151.052109,68.9390702 151.437328,69.1559498 151.62,69.52 L159,78.72 C159.774982,79.6854279 159.994471,80.9834402 159.58,82.15 C159.125693,83.4582027 158.016393,84.430739 156.66,84.71 C156.374534,84.7750737 156.082786,84.8086079 155.79,84.81 L155.79,84.81 Z" id="Shape" fill="#F29222"></path>
                <path d="M150.75,88.44 C149.278878,88.4418384 147.871912,87.8378197 146.86,86.77 L138.38,77.9 C138.137429,77.4992546 138.205556,76.9838274 138.543915,76.6598666 C138.882274,76.3359058 139.400175,76.2902428 139.79,76.55 L148.27,85.42 C149.104293,86.3116337 150.349705,86.6924937 151.54,86.42 C152.70688,86.1641108 153.646317,85.3010503 154,84.16 L154,84.02 C154.229303,83.6086469 154.714543,83.4130344 155.165028,83.5503479 C155.615512,83.6876613 155.909137,84.1206817 155.87,84.59 L155.87,84.73 C155.309463,86.5253177 153.83462,87.8858311 152,88.3 C151.590043,88.3942276 151.170645,88.4412003 150.75,88.44 L150.75,88.44 Z" id="Shape" fill="#F29222"></path>
                <path d="M145.3,91.69 L145,91.69 C143.572948,91.5884876 142.245097,90.9227629 141.31,89.84 L134.31,82.05 C133.977561,81.8119252 133.823556,81.3954426 133.921127,80.9983597 C134.018699,80.6012768 134.348189,80.3035995 134.753107,80.2467089 C135.158025,80.1898184 135.556786,80.3851772 135.76,80.74 L142.76,88.53 C143.353696,89.2198094 144.19337,89.6504118 145.1,89.73 C146.46,89.8 147.65,89.04 148.62,87.46 C148.943303,87.1274742 149.452815,87.0608824 149.85072,87.2991484 C150.248624,87.5374144 150.430484,88.0180014 150.29,88.46 C148.71,91.09 146.75,91.69 145.3,91.69 L145.3,91.69 Z M135.47,56.68 L135.25,56.68 C130.726286,55.8276326 126.111142,55.5654467 121.52,55.9 C121.129605,56.0167906 120.707391,55.8850185 120.452729,55.5669068 C120.198066,55.248795 120.161897,54.8079773 120.361299,54.4526089 C120.560702,54.0972405 120.955789,53.8984078 121.36,53.95 C126.148602,53.5899752 130.963796,53.8657056 135.68,54.77 C136.112046,54.9296082 136.379197,55.363672 136.327032,55.8212939 C136.274868,56.2789157 135.916883,56.6417206 135.46,56.7 L135.47,56.68 L135.47,56.68 Z" id="Shape" fill="#F29222"></path>
                <path d="M139.94,93.4 C138.93748,93.4010424 137.973468,93.0140042 137.25,92.32 L134,89.16 C127.727213,82.9950043 120.998104,77.3122001 113.87,72.16 C113.492944,72.0039527 113.24853,71.6344541 113.252448,71.2264019 C113.256367,70.8183497 113.507831,70.4536129 113.887814,70.3048351 C114.267797,70.1560573 114.700062,70.2530885 114.98,70.55 C122.195513,75.7489512 129.008208,81.485254 135.36,87.71 L138.64,90.86 C139.177378,91.3592351 139.944921,91.5242569 140.64,91.29 C141.28267,91.0917116 141.756146,90.5444981 141.86,89.88 C141.932671,89.3380841 142.42711,88.9550048 142.97,89.02 C143.47365,89.0726561 143.845068,89.5148208 143.81,90.02 L143.81,90.14 C143.61014,91.5417085 142.627874,92.7064508 141.28,93.14 C140.851529,93.3028014 140.398264,93.3907483 139.94,93.4 L139.94,93.4 Z" id="Shape" fill="#F29222"></path>
                <path d="M120.9,81.29 C120.101603,81.2920198 119.327365,81.0162637 118.71,80.51 C118.03407,79.9572887 117.613344,79.1523795 117.545366,78.2818911 C117.477389,77.4114028 117.768065,76.5509394 118.35,75.9 L119.22,74.9 C119.421073,74.5444648 119.818161,74.346953 120.223011,74.4011027 C120.627861,74.4552523 120.959085,74.7501778 121.059654,75.1460584 C121.160223,75.5419389 121.009919,75.9591909 120.68,76.2 L119.81,77.2 C119.588518,77.4606073 119.483491,77.8005833 119.519392,78.140703 C119.555294,78.4808228 119.728988,78.7913781 120,79 C120.620735,79.5062617 121.530655,79.4311712 122.06,78.83 L122.9,77.83 C123.280359,77.5523747 123.802869,77.5777303 124.154559,77.8908794 C124.50625,78.2040284 124.591814,78.7201086 124.36,79.13 L123.52,80.13 C122.856924,80.8792912 121.900472,81.3027583 120.9,81.29 L120.9,81.29 Z" id="Shape" fill="#F29222"></path>
                <path d="M124.13,86.29 C122.66487,86.2864819 121.335966,85.4300098 120.727584,84.0971591 C120.119202,82.7643085 120.342775,81.1992063 121.3,80.09 L123.07,78.09 C123.26698,77.7334028 123.660589,77.5319448 124.065044,77.5807137 C124.469499,77.6294826 124.80394,77.9187282 124.91051,78.3119272 C125.01708,78.7051262 124.874473,79.1236673 124.55,79.37 L122.78,81.37 C122.212215,82.1128458 122.311799,83.1675432 123.00859,83.7909876 C123.705381,84.4144319 124.764619,84.3965758 125.44,83.75 L127.34,81.68 C127.545414,81.3260085 127.945801,81.1329184 128.350702,81.1925803 C128.755604,81.2522423 129.08328,81.5526122 129.177859,81.9508075 C129.272438,82.3490027 129.114827,82.7646378 128.78,83 L126.88,85.07 C126.175256,85.8446999 125.177291,86.2874336 124.13,86.29 L124.13,86.29 Z" id="Shape" fill="#F29222"></path>
                <path d="M128.85,89.25 C127.368419,89.2551149 126.025053,88.3805623 125.430179,87.0236415 C124.835305,85.6667207 125.102351,84.0861638 126.11,83 L127.34,81.66 C127.555554,81.3219307 127.952189,81.1452911 128.34767,81.2112389 C128.743151,81.2771867 129.061008,81.5729704 129.155201,81.9626909 C129.249393,82.3524115 129.101708,82.7607131 128.78,83 L127.55,84.34 C127.111341,84.7992166 126.953735,85.4589574 127.13747,86.0668581 C127.321206,86.6747589 127.817851,87.136755 128.437431,87.2761236 C129.05701,87.4154922 129.703651,87.2106678 130.13,86.74 L131.41,85.38 C131.619977,85.0280237 132.023471,84.839807 132.428088,84.905095 C132.832706,84.9703831 133.156523,85.2759569 133.245138,85.6761133 C133.333752,86.0762697 133.169223,86.4899881 132.83,86.72 L131.55,88.08 C130.849754,88.825505 129.8728,89.2488516 128.85,89.25 L128.85,89.25 Z" id="Shape" fill="#F29222"></path>
                <path d="M133.36,92.1 C131.938296,92.1030797 130.651072,91.2599867 130.08579,89.9554908 C129.520509,88.650995 129.785568,87.1352461 130.76,86.1 L131.25,85.59 C131.459977,85.2380237 131.863471,85.049807 132.268088,85.115095 C132.672706,85.1803831 132.996523,85.4859569 133.085138,85.8861133 C133.173752,86.2862697 133.009223,86.6999881 132.67,86.93 L132.19,87.44 C131.571441,88.0834117 131.591588,89.1064411 132.235,89.725 C132.878412,90.3435589 133.901441,90.3234117 134.52,89.68 L135.19,88.99 C135.583474,88.7248902 136.109075,88.7727639 136.448177,89.1045997 C136.78728,89.4364354 136.846526,89.9608762 136.59,90.36 L135.92,91.05 C135.243156,91.7308695 134.320006,92.1095054 133.36,92.1 L133.36,92.1 Z M103.5,72.19 C103.369323,72.18842 103.240222,72.161241 103.12,72.11 L77,61 C76.61604,60.72894 76.4726591,60.2270758 76.6554755,59.7940897 C76.8382919,59.3611035 77.2979623,59.113861 77.76,59.2 L103.84,70.26 C104.231675,70.4672825 104.440218,70.9076201 104.352422,71.3419789 C104.264626,71.7763378 103.901433,72.1011118 103.46,72.14 L103.5,72.19 L103.5,72.19 Z M105.08,68.24 C104.945952,68.2397423 104.813324,68.2125365 104.69,68.16 L82,58.41 C81.6012116,58.3298334 81.2907197,58.0160986 81.2147009,57.6164987 C81.1386821,57.2168989 81.3122863,56.8110709 81.6537823,56.5900747 C81.9952783,56.3690784 82.4366089,56.3769565 82.77,56.61 L105.43,66.36 C105.82252,66.5685055 106.030314,67.0110609 105.940034,67.4462571 C105.849754,67.8814532 105.483068,68.2048345 105.04,68.24 L105.08,68.24 Z M106.66,64.29 C106.533347,64.2903081 106.407788,64.2665537 106.29,64.22 L86.53,56 C86.1367683,55.7338081 85.9849659,55.2277796 86.1667424,54.7890922 C86.348519,54.3504048 86.8137402,54.1000491 87.28,54.19 L107,62.4 C107.390901,62.6060306 107.600239,63.0441923 107.514912,63.4777486 C107.429584,63.9113049 107.069821,64.2374625 106.63,64.28 L106.66,64.29 L106.66,64.29 Z M108.24,60.34 C108.109323,60.33842 107.980222,60.311241 107.86,60.26 L91.26,53.15 C90.8719059,52.8787185 90.727276,52.3724325 90.9135084,51.9370841 C91.0997407,51.5017358 91.5657781,51.2566796 92.03,51.35 L108.63,58.46 C109.02252,58.6685055 109.230314,59.1110609 109.140034,59.5462571 C109.049754,59.9814532 108.683068,60.3048345 108.24,60.34 Z M109.82,56.38 C109.689323,56.37842 109.560222,56.351241 109.44,56.3 L96.53,50.77 C96.1312116,50.6898334 95.8207197,50.3760986 95.7447009,49.9764987 C95.6686821,49.5768989 95.8422863,49.1710709 96.1837823,48.9500747 C96.5252783,48.7290784 96.9666089,48.7369565 97.3,48.97 L110.21,54.5 C110.60252,54.7085055 110.810314,55.1510609 110.720034,55.5862571 C110.629754,56.0214532 110.263068,56.3448345 109.82,56.38 L109.82,56.38 Z M111.4,52.43 C111.269323,52.42842 111.140222,52.401241 111.02,52.35 L101.02,48.14 C100.617888,48.0650331 100.301972,47.7527292 100.222386,47.3515055 C100.1428,46.9502818 100.315591,46.5410389 100.658644,46.3182626 C101.001696,46.0954862 101.445839,46.1040959 101.78,46.34 L111.78,50.55 C112.171675,50.7572825 112.380218,51.1976201 112.292422,51.6319789 C112.204626,52.0663378 111.841433,52.3911118 111.4,52.43 L111.4,52.43 Z" id="Shape" fill="#F29222"></path>
                <circle id="Oval" fill="#F29222" cx="109.82" cy="69.1" r="1.05"></circle>
                <circle id="Oval" fill="#F29222" cx="169.49" cy="71.08" r="1.05"></circle>
                <path d="M179.9,75.61 C179.508387,75.6035081 179.156613,75.3689924 179,75.01 L168.59,50.11 C168.351458,49.7750626 168.342263,49.3282444 168.566824,48.9837769 C168.791385,48.6393094 169.203919,48.4674199 169.606634,48.5505225 C170.009349,48.6336251 170.320142,48.9547775 170.39,49.36 L180.8,74.26 C180.916804,74.5621849 180.879977,74.9022311 180.701187,75.1724032 C180.522397,75.4425752 180.2238,75.6093914 179.9,75.62 L179.9,75.61 L179.9,75.61 Z M183.06,74.3 C182.668387,74.2935081 182.316613,74.0589924 182.16,73.7 L171.75,48.8 C171.511458,48.4650626 171.502263,48.0182444 171.726824,47.6737769 C171.951385,47.3293094 172.363919,47.1574199 172.766634,47.2405225 C173.169349,47.3236251 173.480142,47.6447775 173.55,48.05 L184,72.94 C184.116804,73.2421849 184.079977,73.5822311 183.901187,73.8524032 C183.722397,74.1225752 183.4238,74.2893914 183.1,74.3 L183.06,74.3 L183.06,74.3 Z M186.22,73 C185.828387,72.9935081 185.476613,72.7589924 185.32,72.4 L175.84,49.74 C175.604096,49.4058389 175.595486,48.9616964 175.818263,48.6186439 C176.041039,48.2755913 176.450282,48.1027998 176.851505,48.1823857 C177.252729,48.2619716 177.565033,48.5778877 177.64,48.98 L187.12,71.64 C187.236804,71.9421849 187.199977,72.2822311 187.021187,72.5524032 C186.842397,72.8225752 186.5438,72.9893914 186.22,73 L186.22,73 Z M189.38,71.66 C188.986014,71.651761 188.633602,71.4129043 188.48,71.05 L181.1,53.14 C181.010049,52.6737402 181.260405,52.208519 181.699092,52.0267424 C182.13778,51.8449659 182.643808,51.9967683 182.91,52.39 L190.29,70.3 C190.402721,70.6010358 190.363857,70.937906 190.18555,71.2053666 C190.007243,71.4728271 189.711233,71.638267 189.39,71.65 L189.38,71.66 L189.38,71.66 Z M192.54,70.35 C192.148387,70.3435081 191.796613,70.1089924 191.64,69.75 L185.58,55.26 C185.341458,54.9250626 185.332263,54.4782444 185.556824,54.1337769 C185.781385,53.7893094 186.193919,53.6174199 186.596634,53.7005225 C186.999349,53.7836251 187.310142,54.1047775 187.38,54.51 L193.45,69 C193.566804,69.3021849 193.529977,69.6422311 193.351187,69.9124032 C193.172397,70.1825752 192.8738,70.3493914 192.55,70.36 L192.54,70.35 L192.54,70.35 Z M195.7,69 C195.310732,68.9952823 194.959583,68.7650848 194.8,68.41 L190.06,57.35 C189.826956,57.0166089 189.819078,56.5752783 190.040075,56.2337823 C190.261071,55.8922863 190.666899,55.7186821 191.066499,55.7947009 C191.466099,55.8707197 191.779833,56.1812116 191.86,56.58 L196.6,67.64 C196.716804,67.9421849 196.679977,68.2822311 196.501187,68.5524032 C196.322397,68.8225752 196.0238,68.9893914 195.7,69 L195.7,69 Z M198.87,67.71 C198.478387,67.7035081 198.126613,67.4689924 197.97,67.11 L195.07,60.26 C194.983861,59.7979623 195.231104,59.3382919 195.66409,59.1554755 C196.097076,58.9726591 196.59894,59.11604 196.87,59.5 L199.77,66.35 C199.886804,66.6521849 199.849977,66.9922311 199.671187,67.2624032 C199.492397,67.5325752 199.1938,67.6993914 198.87,67.71 L198.87,67.71 Z M202,66.39 C201.608387,66.3835081 201.256613,66.1489924 201.1,65.79 L199.78,62.63 C199.690049,62.1637402 199.940405,61.698519 200.379092,61.5167424 C200.81778,61.3349659 201.323808,61.4867683 201.59,61.88 L202.93,65 C203.042721,65.3010358 203.003857,65.637906 202.82555,65.9053666 C202.647243,66.1728271 202.351233,66.338267 202.03,66.35 L202,66.39 L202,66.39 Z" id="Shape" fill="#F29222"></path>
            </g>
        </g>
    </g>
</svg>