<?xml version="1.0" encoding="UTF-8"?>
<svg width="800px" height="248px" viewBox="0 0 800 248" version="1.1" xmlns="http://www.w3.org/2000/svg" xmlns:xlink="http://www.w3.org/1999/xlink" style="background: #F5F0F0;">
    <!-- Generator: Sketch 49.2 (51160) - http://www.bohemiancoding.com/sketch -->
    <title>P2C1_2</title>
    <desc>Created with Sketch.</desc>
    <defs></defs>
    <g id="P2C1_2" stroke="none" stroke-width="1" fill="none" fill-rule="evenodd">
        <path d="M209.564732,118.5 L714.435268,118.5" id="Line" stroke="#A8C4AD" stroke-linecap="square"></path>
        <path d="M209.564732,41.5 L714.435268,41.5" id="Line" stroke="#A8C4AD" stroke-linecap="square"></path>
        <path d="M209.564732,194.5 L714.435268,194.5" id="Line" stroke="#A8C4AD" stroke-linecap="square"></path>
        <g id="Group" transform="translate(9.000000, 19.000000)" fill="#CECF57" fill-rule="nonzero">
            <path d="M145.12,53 L54.88,53 C53.84224,53 53,53.84224 53,54.88 L53,145.12 C53,146.15776 53.84224,147 54.88,147 L145.12,147 C146.15776,147 147,146.15776 147,145.12 L147,54.88 C147,53.84224 146.15776,53 145.12,53 Z M143.24,143.24 L56.76,143.24 L56.76,56.76 L143.24,56.76 L143.24,143.24 Z" id="Shape"></path>
            <path d="M198.113208,101.886792 C199.154717,101.886792 200,101.041509 200,100 C200,98.9584906 199.154717,98.1132075 198.113208,98.1132075 L162.264151,98.1132075 L162.264151,71.6981132 L198.113208,71.6981132 C199.154717,71.6981132 200,70.8528302 200,69.8113208 C200,68.7698113 199.154717,67.9245283 198.113208,67.9245283 L162.264151,67.9245283 L162.264151,39.6226415 C162.264151,38.5811321 161.418868,37.7358491 160.377358,37.7358491 L132.075472,37.7358491 L132.075472,1.88679245 C132.075472,0.845283019 131.230189,0 130.188679,0 C129.14717,0 128.301887,0.845283019 128.301887,1.88679245 L128.301887,37.7358491 L101.886792,37.7358491 L101.886792,1.88679245 C101.886792,0.845283019 101.041509,0 100,0 C98.9584906,0 98.1132075,0.845283019 98.1132075,1.88679245 L98.1132075,37.7358491 L71.6981132,37.7358491 L71.6981132,1.88679245 C71.6981132,0.845283019 70.8528302,0 69.8113208,0 C68.7698113,0 67.9245283,0.845283019 67.9245283,1.88679245 L67.9245283,37.7358491 L39.6226415,37.7358491 C38.5811321,37.7358491 37.7358491,38.5811321 37.7358491,39.6226415 L37.7358491,67.9245283 L1.88679245,67.9245283 C0.845283019,67.9245283 0,68.7698113 0,69.8113208 C0,70.8528302 0.845283019,71.6981132 1.88679245,71.6981132 L37.7358491,71.6981132 L37.7358491,98.1132075 L1.88679245,98.1132075 C0.845283019,98.1132075 0,98.9584906 0,100 C0,101.041509 0.845283019,101.886792 1.88679245,101.886792 L37.7358491,101.886792 L37.7358491,128.301887 L1.88679245,128.301887 C0.845283019,128.301887 0,129.14717 0,130.188679 C0,131.230189 0.845283019,132.075472 1.88679245,132.075472 L37.7358491,132.075472 L37.7358491,160.377358 C37.7358491,161.418868 38.5811321,162.264151 39.6226415,162.264151 L67.9245283,162.264151 L67.9245283,198.113208 C67.9245283,199.154717 68.7698113,200 69.8113208,200 C70.8528302,200 71.6981132,199.154717 71.6981132,198.113208 L71.6981132,162.264151 L98.1132075,162.264151 L98.1132075,198.113208 C98.1132075,199.154717 98.9584906,200 100,200 C101.041509,200 101.886792,199.154717 101.886792,198.113208 L101.886792,162.264151 L128.301887,162.264151 L128.301887,198.113208 C128.301887,199.154717 129.14717,200 130.188679,200 C131.230189,200 132.075472,199.154717 132.075472,198.113208 L132.075472,162.264151 L160.377358,162.264151 C161.418868,162.264151 162.264151,161.418868 162.264151,160.377358 L162.264151,132.075472 L198.113208,132.075472 C199.154717,132.075472 200,131.230189 200,130.188679 C200,129.14717 199.154717,128.301887 198.113208,128.301887 L162.264151,128.301887 L162.264151,101.886792 L198.113208,101.886792 Z M158.490566,158.490566 L41.509434,158.490566 L41.509434,41.509434 L158.490566,41.509434 L158.490566,158.490566 Z" id="Shape"></path>
        </g>
        <text id="CPU-4-coeurs" font-family="SFUIDisplay-Medium, SF UI Display" font-size="30" font-weight="400" letter-spacing="3" fill="#CECF57">
            <tspan x="75.0073242" y="119">CPU</tspan>
            <tspan x="72.4541016" y="155" font-family="SFUIDisplay-Light, SF UI Display" font-size="20" font-weight="300">4 coeurs</tspan>
        </text>
        <text id="Thread-1" font-family="SFUIDisplay-Light, SF UI Display" font-size="20" font-weight="300" fill="#A8C4AD">
            <tspan x="715.242188" y="47">Thread 1</tspan>
        </text>
        <text id="Thread-2" font-family="SFUIDisplay-Light, SF UI Display" font-size="20" font-weight="300" fill="#A8C4AD">
            <tspan x="713.331055" y="124">Thread 2</tspan>
        </text>
        <text id="Thread-3" font-family="SFUIDisplay-Light, SF UI Display" font-size="20" font-weight="300" fill="#A8C4AD">
            <tspan x="714.179688" y="200">Thread 3</tspan>
        </text>
        <path d="M210.5,41.5 L541.5,41.5" id="Line-3" stroke="#AC4340" stroke-width="3" stroke-linecap="square"></path>
        <path d="M209.5,118.5 L492.5,118.5" id="Line-3" stroke="#AC4340" stroke-width="3" stroke-linecap="square"></path>
        <path d="M209.5,194.5 L644.5,194.5" id="Line-3" stroke="#AC4340" stroke-width="3" stroke-linecap="square"></path>
    </g>
</svg>