<?xml version="1.0" encoding="UTF-8"?>
<svg width="700px" height="375px" viewBox="0 0 700 375" version="1.1" xmlns="http://www.w3.org/2000/svg" xmlns:xlink="http://www.w3.org/1999/xlink" style="background: #EDEFF2;">
    <!-- Generator: Sketch 43.2 (39069) - http://www.bohemiancoding.com/sketch -->
    <title>P4C1_3</title>
    <desc>Created with Sketch.</desc>
    <defs>
        <rect id="path-1" x="0" y="0" width="205" height="399"></rect>
    </defs>
    <g id="P4" stroke="none" stroke-width="1" fill="none" fill-rule="evenodd">
        <g id="P4C1_3">
            <path d="M243.5,30.5 L243.5,51.5 L237.5,51.5 L237.5,30.5 L232.5,30.5 L232.5,14.5 L248.5,14.5 L248.5,30.5 L243.5,30.5 Z" id="Récepteur" fill="#E6BD7B" transform="translate(240.500000, 33.000000) rotate(-90.000000) translate(-240.500000, -33.000000) "></path>
            <g id="Emetteur" transform="translate(52.980970, 90.980970) rotate(-45.000000) translate(-52.980970, -90.980970) translate(39.980970, 71.480970)">
                <path d="M16,21.4878829 L16,39 L10,39 L10,21.4878829 C6.50442288,20.2523737 4,16.9186565 4,13 C4,8.02943725 8.02943725,4 13,4 C17.9705627,4 22,8.02943725 22,13 C22,16.9186565 19.4955771,20.2523737 16,21.4878829 Z" id="Combined-Shape" fill="#E6BD7B"></path>
                <circle id="Oval-3" stroke="#E6BD7B" stroke-dasharray="3" cx="13" cy="13" r="13"></circle>
            </g>
            <g id="Contrôleur" transform="translate(248.000000, -12.000000)">
                <g id="Rectangle-5">
                    <use fill="#5B8EC9" fill-rule="evenodd" xlink:href="#path-1"></use>
                    <rect stroke="#576B82" stroke-width="4" x="2" y="2" width="201" height="395"></rect>
                </g>
                <path d="M12,12.5 L12,407.5" id="Line" stroke="#576B82" stroke-width="4" stroke-linecap="square" stroke-dasharray="10,10,10,10"></path>
                <path d="M194,12.5 L194,407.5" id="Line" stroke="#576B82" stroke-width="4" stroke-linecap="square" stroke-dasharray="10,10,10,10"></path>
                <text font-family="SFUIDisplay-Light, SF UI Display" font-size="35" font-weight="300" fill="#FFFFFF">
                    <tspan x="25.4890137" y="167">Contrôleur</tspan>
                </text>
            </g>
            <g id="Modèle" transform="translate(30.000000, 76.000000)">
                <ellipse id="Oval-2" fill="#C0C4C9" cx="93.5" cy="116.5" rx="93.5" ry="116.5"></ellipse>
                <text font-family="SFUIDisplay-Light, SF UI Display" font-size="35" font-weight="300" fill="#FFFFFF">
                    <tspan x="38.2485352" y="129">Modèle</tspan>
                </text>
            </g>
            <g id="Vue" transform="translate(483.000000, 76.000000)">
                <ellipse id="Oval-2" fill="#C0C4C9" cx="93.5" cy="116.5" rx="93.5" ry="116.5"></ellipse>
                <text font-family="SFUIDisplay-Light, SF UI Display" font-size="35" font-weight="300" fill="#FFFFFF">
                    <tspan x="64.3361816" y="129">Vue</tspan>
                </text>
            </g>
            <path d="M243,198 L297,198 L297,217 L243,217 L243,222 L205,207 L243,192 L243,198 Z" id="Combined-Shape" fill="#C8EDA0"></path>
            <path d="M442,198 L496,198 L496,217 L442,217 L442,222 L404,207 L442,192 L442,198 Z" id="Combined-Shape" fill="#C8EDA0" transform="translate(450.000000, 207.000000) scale(-1, 1) translate(-450.000000, -207.000000) "></path>
            <text id="Outlet" font-family="SFUIDisplay-Light, SF UI Display" font-size="20" font-weight="300" fill="#417505">
                <tspan x="408" y="214">Outlet</tspan>
            </text>
        </g>
    </g>
</svg>