<?xml version="1.0" encoding="UTF-8"?>
<svg width="700px" height="456px" viewBox="0 0 700 456" version="1.1" xmlns="http://www.w3.org/2000/svg" xmlns:xlink="http://www.w3.org/1999/xlink" style="background: #CEF0FF;">
    <!-- Generator: Sketch 48.2 (47327) - http://www.bohemiancoding.com/sketch -->
    <title>P1C1_4</title>
    <desc>Created with Sketch.</desc>
    <defs>
        <rect id="path-1" x="16.1677812" y="0" width="73.6644376" height="143.757353"></rect>
        <rect id="path-2" x="16.1677812" y="0" width="73.6644376" height="143.757353"></rect>
        <rect id="path-3" x="16.1677812" y="0" width="73.6644376" height="143.757353"></rect>
        <rect id="path-4" x="16.1677812" y="0" width="73.6644376" height="143.757353"></rect>
    </defs>
    <g id="P1" stroke="none" stroke-width="1" fill="none" fill-rule="evenodd">
        <g id="P1C1_4">
            <g id="Group" transform="translate(49.000000, 29.000000)">
                <g id="Vue" transform="translate(164.000000, 32.000000)" fill="#E7B769">
                    <ellipse id="Oval-2" cx="33.5" cy="42" rx="33.5" ry="42"></ellipse>
                </g>
                <g id="Modèle" transform="translate(0.000000, 32.000000)" fill="#DAA8C8">
                    <ellipse id="Oval-2" cx="33.5" cy="44" rx="33.5" ry="44"></ellipse>
                </g>
                <g id="Contrôleur" transform="translate(62.000000, 0.000000)">
                    <g id="Rectangle-5">
                        <use fill="#29B1CA" fill-rule="evenodd" xlink:href="#path-1"></use>
                        <rect stroke="#137A8C" stroke-width="2" x="17.1677812" y="1" width="71.6644376" height="141.757353"></rect>
                    </g>
                    <path d="M20,4.49778983 L20,142.163523" id="Line" stroke="#137A8C" stroke-width="2" stroke-linecap="square" stroke-dasharray="10,10,10,10"></path>
                    <path d="M86,4.49778983 L86,142.163523" id="Line" stroke="#137A8C" stroke-width="2" stroke-linecap="square" stroke-dasharray="10,10,10,10"></path>
                    <path d="M14.3892401,75.6617647 L33.7753785,75.6617647 L33.7753785,82.5073529 L14.3892401,82.5073529 L14.3892401,84.2944926 L0.698063664,78.9044118 L14.3892401,73.514331 L14.3892401,75.6617647 Z" id="Combined-Shape" fill="#AC4F8B"></path>
                    <path d="M85.915798,75.6617647 L105.301936,75.6617647 L105.301936,82.5073529 L85.915798,82.5073529 L85.915798,84.2944926 L72.2246215,78.9044118 L85.915798,73.514331 L85.915798,75.6617647 Z" id="Combined-Shape" fill="#AC4F8B" transform="translate(88.763279, 78.904412) scale(-1, 1) translate(-88.763279, -78.904412) "></path>
                </g>
            </g>
            <g id="Group-2" transform="translate(398.000000, 29.000000)">
                <ellipse id="Oval-2" fill="#E7B769" cx="220.5" cy="154" rx="33.5" ry="42"></ellipse>
                <g id="Modèle" transform="translate(0.000000, 32.000000)" fill="#DAA8C8">
                    <ellipse id="Oval-2" cx="33.5" cy="44" rx="33.5" ry="44"></ellipse>
                </g>
                <g id="Contrôleur" transform="translate(62.000000, 0.000000)">
                    <g id="Rectangle-5">
                        <use fill="#29B1CA" fill-rule="evenodd" xlink:href="#path-2"></use>
                        <rect stroke="#137A8C" stroke-width="2" x="17.1677812" y="1" width="71.6644376" height="141.757353"></rect>
                    </g>
                    <path d="M20,4.49018261 L20,136.146209" id="Line" stroke="#137A8C" stroke-width="2" stroke-linecap="square" stroke-dasharray="10,10,10,10"></path>
                    <path d="M86,4.49018261 L86,136.146209" id="Line" stroke="#137A8C" stroke-width="2" stroke-linecap="square" stroke-dasharray="10,10,10,10"></path>
                    <path d="M14.3892401,75.6617647 L33.7753785,75.6617647 L33.7753785,82.5073529 L14.3892401,82.5073529 L14.3892401,84.2944926 L0.698063664,78.9044118 L14.3892401,73.514331 L14.3892401,75.6617647 Z" id="Combined-Shape" fill="#AC4F8B"></path>
                </g>
                <g id="Modèle" transform="translate(0.000000, 201.000000)" fill="#DAA8C8">
                    <ellipse id="Oval-2" cx="33.5" cy="44" rx="33.5" ry="44"></ellipse>
                </g>
                <g id="Contrôleur" transform="translate(62.000000, 169.000000)">
                    <g id="Rectangle-5">
                        <use fill="#29B1CA" fill-rule="evenodd" xlink:href="#path-3"></use>
                        <rect stroke="#137A8C" stroke-width="2" x="17.1677812" y="1" width="71.6644376" height="141.757353"></rect>
                    </g>
                    <path d="M20,4.49796208 L20,142.299773" id="Line" stroke="#137A8C" stroke-width="2" stroke-linecap="square" stroke-dasharray="10,10,10,10"></path>
                    <path d="M86,4.49796208 L86,142.299773" id="Line" stroke="#137A8C" stroke-width="2" stroke-linecap="square" stroke-dasharray="10,10,10,10"></path>
                    <path d="M14.3892401,75.6617647 L33.7753785,75.6617647 L33.7753785,82.5073529 L14.3892401,82.5073529 L14.3892401,84.2944926 L0.698063664,78.9044118 L14.3892401,73.514331 L14.3892401,75.6617647 Z" id="Combined-Shape" fill="#AC4F8B"></path>
                </g>
                <path d="M163.234636,116.644306 L196.133916,116.644306 L196.133916,128.261624 L163.234636,128.261624 L163.234636,131.294493 L140,122.147246 L163.234636,113 L163.234636,116.644306 Z" id="Combined-Shape" fill="#AC4F8B" transform="translate(168.066958, 122.147246) scale(-1, 1) rotate(-30.000000) translate(-168.066958, -122.147246) "></path>
                <path d="M163.234636,179.644306 L196.133916,179.644306 L196.133916,191.261624 L163.234636,191.261624 L163.234636,194.294493 L140,185.147246 L163.234636,176 L163.234636,179.644306 Z" id="Combined-Shape" fill="#AC4F8B" transform="translate(168.066958, 185.147246) scale(-1, -1) rotate(-30.000000) translate(-168.066958, -185.147246) "></path>
            </g>
            <g id="Group" transform="translate(49.000000, 198.000000)">
                <g id="Vue" transform="translate(164.000000, 32.000000)" fill="#E7B769">
                    <ellipse id="Oval-2" cx="33.5" cy="42" rx="33.5" ry="42"></ellipse>
                </g>
                <g id="Modèle" transform="translate(0.000000, 32.000000)" fill="#DAA8C8">
                    <ellipse id="Oval-2" cx="33.5" cy="44" rx="33.5" ry="44"></ellipse>
                </g>
                <g id="Contrôleur" transform="translate(62.000000, 0.000000)">
                    <g id="Rectangle-5">
                        <use fill="#29B1CA" fill-rule="evenodd" xlink:href="#path-4"></use>
                        <rect stroke="#137A8C" stroke-width="2" x="17.1677812" y="1" width="71.6644376" height="141.757353"></rect>
                    </g>
                    <path d="M20,4.49015942 L20,136.127863" id="Line" stroke="#137A8C" stroke-width="2" stroke-linecap="square" stroke-dasharray="10,10,10,10"></path>
                    <path d="M86,4.49015942 L86,136.127863" id="Line" stroke="#137A8C" stroke-width="2" stroke-linecap="square" stroke-dasharray="10,10,10,10"></path>
                    <path d="M14.3892401,75.6617647 L33.7753785,75.6617647 L33.7753785,82.5073529 L14.3892401,82.5073529 L14.3892401,84.2944926 L0.698063664,78.9044118 L14.3892401,73.514331 L14.3892401,75.6617647 Z" id="Combined-Shape" fill="#AC4F8B"></path>
                    <path d="M85.915798,75.6617647 L105.301936,75.6617647 L105.301936,82.5073529 L85.915798,82.5073529 L85.915798,84.2944926 L72.2246215,78.9044118 L85.915798,73.514331 L85.915798,75.6617647 Z" id="Combined-Shape" fill="#AC4F8B" transform="translate(88.763279, 78.904412) scale(-1, 1) translate(-88.763279, -78.904412) "></path>
                </g>
            </g>
            <text id="✅" font-family="AppleColorEmoji, Apple Color Emoji" font-size="50" font-weight="normal" fill="#FFFFFF">
                <tspan x="140" y="420">✅</tspan>
            </text>
            <text id="❌" font-family="AppleColorEmoji, Apple Color Emoji" font-size="50" font-weight="normal" fill="#FFFFFF">
                <tspan x="489" y="420">❌</tspan>
            </text>
        </g>
    </g>
</svg>