<?xml version="1.0" encoding="UTF-8"?>
<svg width="700px" height="456px" viewBox="0 0 700 456" version="1.1" xmlns="http://www.w3.org/2000/svg" xmlns:xlink="http://www.w3.org/1999/xlink" style="background: #CEF0FF;">
    <!-- Generator: Sketch 48.2 (47327) - http://www.bohemiancoding.com/sketch -->
    <title>P1C1_5</title>
    <desc>Created with Sketch.</desc>
    <defs>
        <rect id="path-1" x="16.1677812" y="0" width="73.6644376" height="143.757353"></rect>
        <rect id="path-2" x="16.1677812" y="0" width="73.6644376" height="143.757353"></rect>
        <rect id="path-3" x="0.167781183" y="0" width="73.6644376" height="143.757353"></rect>
        <rect id="path-4" x="0.167781183" y="0" width="73.6644376" height="143.757353"></rect>
    </defs>
    <g id="P1" stroke="none" stroke-width="1" fill="none" fill-rule="evenodd">
        <g id="P1C1_5">
            <g id="Group" transform="translate(49.000000, 29.000000)">
                <g id="Vue" transform="translate(164.000000, 32.000000)" fill="#E7B769">
                    <ellipse id="Oval-2" cx="33.5" cy="42" rx="33.5" ry="42"></ellipse>
                </g>
                <g id="Modèle" transform="translate(0.000000, 32.000000)" fill="#DAA8C8">
                    <ellipse id="Oval-2" cx="33.5" cy="44" rx="33.5" ry="44"></ellipse>
                </g>
                <g id="Contrôleur" transform="translate(62.000000, 0.000000)">
                    <g id="Rectangle-5">
                        <use fill="#29B1CA" fill-rule="evenodd" xlink:href="#path-1"></use>
                        <rect stroke="#137A8C" stroke-width="2" x="17.1677812" y="1" width="71.6644376" height="141.757353"></rect>
                    </g>
                    <path d="M20,4.49778983 L20,142.163523" id="Line" stroke="#137A8C" stroke-width="2" stroke-linecap="square" stroke-dasharray="10,10,10,10"></path>
                    <path d="M86,4.49778983 L86,142.163523" id="Line" stroke="#137A8C" stroke-width="2" stroke-linecap="square" stroke-dasharray="10,10,10,10"></path>
                    <path d="M14.3892401,75.6617647 L33.7753785,75.6617647 L33.7753785,82.5073529 L14.3892401,82.5073529 L14.3892401,84.2944926 L0.698063664,78.9044118 L14.3892401,73.514331 L14.3892401,75.6617647 Z" id="Combined-Shape" fill="#AC4F8B"></path>
                    <path d="M85.915798,75.6617647 L105.301936,75.6617647 L105.301936,82.5073529 L85.915798,82.5073529 L85.915798,84.2944926 L72.2246215,78.9044118 L85.915798,73.514331 L85.915798,75.6617647 Z" id="Combined-Shape" fill="#AC4F8B" transform="translate(88.763279, 78.904412) scale(-1, 1) translate(-88.763279, -78.904412) "></path>
                </g>
            </g>
            <g id="Group" transform="translate(49.000000, 198.000000)">
                <g id="Vue" transform="translate(164.000000, 32.000000)" fill="#E7B769">
                    <ellipse id="Oval-2" cx="33.5" cy="42" rx="33.5" ry="42"></ellipse>
                </g>
                <g id="Modèle" transform="translate(0.000000, 32.000000)" fill="#DAA8C8">
                    <ellipse id="Oval-2" cx="33.5" cy="44" rx="33.5" ry="44"></ellipse>
                </g>
                <g id="Contrôleur" transform="translate(62.000000, 0.000000)">
                    <g id="Rectangle-5">
                        <use fill="#29B1CA" fill-rule="evenodd" xlink:href="#path-2"></use>
                        <rect stroke="#137A8C" stroke-width="2" x="17.1677812" y="1" width="71.6644376" height="141.757353"></rect>
                    </g>
                    <path d="M20,4.49015942 L20,136.127863" id="Line" stroke="#137A8C" stroke-width="2" stroke-linecap="square" stroke-dasharray="10,10,10,10"></path>
                    <path d="M86,4.49015942 L86,136.127863" id="Line" stroke="#137A8C" stroke-width="2" stroke-linecap="square" stroke-dasharray="10,10,10,10"></path>
                    <path d="M14.3892401,75.6617647 L33.7753785,75.6617647 L33.7753785,82.5073529 L14.3892401,82.5073529 L14.3892401,84.2944926 L0.698063664,78.9044118 L14.3892401,73.514331 L14.3892401,75.6617647 Z" id="Combined-Shape" fill="#AC4F8B"></path>
                    <path d="M85.915798,75.6617647 L105.301936,75.6617647 L105.301936,82.5073529 L85.915798,82.5073529 L85.915798,84.2944926 L72.2246215,78.9044118 L85.915798,73.514331 L85.915798,75.6617647 Z" id="Combined-Shape" fill="#AC4F8B" transform="translate(88.763279, 78.904412) scale(-1, 1) translate(-88.763279, -78.904412) "></path>
                </g>
            </g>
            <g id="Group" transform="translate(387.000000, 29.000000)">
                <g id="Vue" transform="translate(188.000000, 32.000000)" fill="#E7B769">
                    <ellipse id="Oval-2" cx="33.5" cy="42" rx="33.5" ry="42"></ellipse>
                </g>
                <g id="Modèle" transform="translate(0.000000, 109.000000)" fill="#DAA8C8">
                    <ellipse id="Oval-2" cx="33.5" cy="44" rx="33.5" ry="44"></ellipse>
                </g>
                <g id="Contrôleur" transform="translate(102.000000, 0.000000)">
                    <g id="Rectangle-5">
                        <use fill="#29B1CA" fill-rule="evenodd" xlink:href="#path-3"></use>
                        <rect stroke="#137A8C" stroke-width="2" x="1.16778118" y="1" width="71.6644376" height="141.757353"></rect>
                    </g>
                    <path d="M4,4.49778983 L4,142.163523" id="Line" stroke="#137A8C" stroke-width="2" stroke-linecap="square" stroke-dasharray="10,10,10,10"></path>
                    <path d="M70,4.49778983 L70,142.163523" id="Line" stroke="#137A8C" stroke-width="2" stroke-linecap="square" stroke-dasharray="10,10,10,10"></path>
                    <path d="M69.915798,75.6617647 L89.3019363,75.6617647 L89.3019363,82.5073529 L69.915798,82.5073529 L69.915798,84.2944926 L56.2246215,78.9044118 L69.915798,73.514331 L69.915798,75.6617647 Z" id="Combined-Shape" fill="#AC4F8B" transform="translate(72.763279, 78.904412) scale(-1, 1) translate(-72.763279, -78.904412) "></path>
                </g>
            </g>
            <g id="Group" transform="translate(489.000000, 198.000000)">
                <g id="Vue" transform="translate(86.000000, 32.000000)" fill="#E7B769">
                    <ellipse id="Oval-2" cx="33.5" cy="42" rx="33.5" ry="42"></ellipse>
                </g>
                <g id="Contrôleur">
                    <g id="Rectangle-5">
                        <use fill="#29B1CA" fill-rule="evenodd" xlink:href="#path-4"></use>
                        <rect stroke="#137A8C" stroke-width="2" x="1.16778118" y="1" width="71.6644376" height="141.757353"></rect>
                    </g>
                    <path d="M4,4.49015942 L4,136.127863" id="Line" stroke="#137A8C" stroke-width="2" stroke-linecap="square" stroke-dasharray="10,10,10,10"></path>
                    <path d="M70,4.49015942 L70,136.127863" id="Line" stroke="#137A8C" stroke-width="2" stroke-linecap="square" stroke-dasharray="10,10,10,10"></path>
                    <path d="M69.915798,75.6617647 L89.3019363,75.6617647 L89.3019363,82.5073529 L69.915798,82.5073529 L69.915798,84.2944926 L56.2246215,78.9044118 L69.915798,73.514331 L69.915798,75.6617647 Z" id="Combined-Shape" fill="#AC4F8B" transform="translate(72.763279, 78.904412) scale(-1, 1) translate(-72.763279, -78.904412) "></path>
                </g>
            </g>
            <text id="✅" font-family="AppleColorEmoji, Apple Color Emoji" font-size="50" font-weight="normal" fill="#FFFFFF">
                <tspan x="140" y="420">✅</tspan>
            </text>
            <text id="✅" font-family="AppleColorEmoji, Apple Color Emoji" font-size="50" font-weight="normal" fill="#FFFFFF">
                <tspan x="502" y="420">✅</tspan>
            </text>
            <path d="M468.047999,147.452287 L500.94728,147.452287 L500.94728,159.069605 L468.047999,159.069605 L468.047999,162.102473 L444.813364,152.955227 L468.047999,143.80798 L468.047999,147.452287 Z" id="Combined-Shape" fill="#AC4F8B" transform="translate(472.880322, 152.955227) rotate(-30.000000) translate(-472.880322, -152.955227) "></path>
            <path d="M468.047999,210.452287 L500.94728,210.452287 L500.94728,222.069605 L468.047999,222.069605 L468.047999,225.102473 L444.813364,215.955227 L468.047999,206.80798 L468.047999,210.452287 Z" id="Combined-Shape" fill="#AC4F8B" transform="translate(472.880322, 215.955227) scale(1, -1) rotate(-30.000000) translate(-472.880322, -215.955227) "></path>
        </g>
    </g>
</svg>