<?xml version="1.0" encoding="UTF-8"?>
<svg width="700px" height="375px" viewBox="0 0 700 375" version="1.1" xmlns="http://www.w3.org/2000/svg" xmlns:xlink="http://www.w3.org/1999/xlink" style="background: #CEF0FF;">
    <!-- Generator: Sketch 48.2 (47327) - http://www.bohemiancoding.com/sketch -->
    <title>P2C2_3</title>
    <desc>Created with Sketch.</desc>
    <defs>
        <rect id="path-1" x="43" y="0" width="205" height="399"></rect>
    </defs>
    <g id="P2" stroke="none" stroke-width="1" fill="none" fill-rule="evenodd">
        <g id="P2C2_3">
            <g id="Vue" transform="translate(483.000000, 76.000000)">
                <ellipse id="Oval-2" fill="#E7B769" cx="93.5" cy="116.5" rx="93.5" ry="116.5"></ellipse>
                <text font-family="SFUIDisplay-Light, SF UI Display" font-size="35" font-weight="300" fill="#FFFFFF">
                    <tspan x="64.3361816" y="129">Vue</tspan>
                </text>
                <g id="Arrow" transform="translate(2.000000, 12.000000)" stroke="#F38794" stroke-linecap="square">
                    <path d="M28.5,24.5 L0.5,0.5" id="Line" fill="#F38794"></path>
                    <path id="Line-decoration-1" d="M0.5,0.5 L6.74759719,9.80631664 L10.6523454,5.25077703 L0.5,0.5 Z" fill="#F38794"></path>
                    <path d="M28.5,24.5 L28.5,28.5" id="Line"></path>
                    <path d="M28.5,24.5 L31.5,24.5" id="Line"></path>
                </g>
            </g>
            <g id="Modèle" transform="translate(30.000000, 68.000000)">
                <ellipse id="Oval-2" fill="#DAA8C8" cx="93.5" cy="124.5" rx="93.5" ry="116.5"></ellipse>
                <text font-family="SFUIDisplay-Light, SF UI Display" font-size="35" font-weight="300" fill="#FFFFFF">
                    <tspan x="38.2485352" y="137">Modèle</tspan>
                </text>
                <g id="Emetteur" transform="translate(22.980970, 22.980970) rotate(-45.000000) translate(-22.980970, -22.980970) translate(9.980970, 3.480970)">
                    <path d="M16,21.4878829 L16,39 L10,39 L10,21.4878829 C6.50442288,20.2523737 4,16.9186565 4,13 C4,8.02943725 8.02943725,4 13,4 C17.9705627,4 22,8.02943725 22,13 C22,16.9186565 19.4955771,20.2523737 16,21.4878829 Z" id="Combined-Shape" fill="#E5BD7B"></path>
                    <circle id="Oval-3" stroke="#E5BD7B" stroke-dasharray="3" cx="13" cy="13" r="13"></circle>
                </g>
            </g>
            <g id="Contrôleur" transform="translate(205.000000, -12.000000)">
                <g id="Rectangle-5">
                    <use fill="#29B1CA" fill-rule="evenodd" xlink:href="#path-1"></use>
                    <rect stroke="#137A8C" stroke-width="4" x="45" y="2" width="201" height="395"></rect>
                </g>
                <path d="M55,12.5 L55,407.5" id="Line" stroke="#137A8C" stroke-width="4" stroke-linecap="square" stroke-dasharray="10,10,10,10"></path>
                <path d="M237,12.5 L237,407.5" id="Line" stroke="#137A8C" stroke-width="4" stroke-linecap="square" stroke-dasharray="10,10,10,10"></path>
                <text font-family="SFUIDisplay-Light, SF UI Display" font-size="35" font-weight="300" fill="#FFFFFF">
                    <tspan x="68.4890137" y="167">Contrôleur</tspan>
                </text>
                <g id="Propriété" transform="translate(0.000000, 204.000000)">
                    <path d="M38,6 L92,6 L92,25 L38,25 L38,30 L9.18485099e-16,15 L38,3.55271368e-15 L38,6 Z" id="Combined-Shape" fill="#AC4F8B"></path>
                    <text font-family="SFUIDisplay-Light, SF UI Display" font-size="18" font-weight="300" fill="#FFFFFF">
                        <tspan x="23" y="21">Propriété</tspan>
                    </text>
                </g>
                <g id="Outlet" transform="translate(199.000000, 204.000000)">
                    <path d="M38,6 L92,6 L92,25 L38,25 L38,30 L9.18485099e-16,15 L38,3.55271368e-15 L38,6 Z" id="Combined-Shape" fill="#AC4F8B" transform="translate(46.000000, 15.000000) scale(-1, 1) translate(-46.000000, -15.000000) "></path>
                    <text font-family="SFUIDisplay-Light, SF UI Display" font-size="20" font-weight="300" fill="#FFFFFF">
                        <tspan x="4" y="22">Outlet</tspan>
                    </text>
                </g>
                <g id="Target" transform="translate(233.000000, 63.000000)" fill="#FFFFFF" stroke="#F38794" stroke-width="2">
                    <circle id="Oval-4" cx="15" cy="15" r="15"></circle>
                    <circle id="Oval-4" cx="15" cy="15" r="10"></circle>
                    <circle id="Oval-4" cx="15" cy="15" r="5"></circle>
                </g>
                <path d="M38.5,42.5 L38.5,63.5 L32.5,63.5 L32.5,42.5 L27.5,42.5 L27.5,26.5 L43.5,26.5 L43.5,42.5 L38.5,42.5 Z" id="Récepteur" fill="#E5BD7B" transform="translate(35.500000, 45.000000) rotate(-90.000000) translate(-35.500000, -45.000000) "></path>
            </g>
            <g id="dataSource" transform="translate(367.000000, 249.000000)">
                <text font-family="SFUIDisplay-Light, SF UI Display" font-size="13" font-weight="300" fill="#FFFFFF">
                    <tspan x="0.477539062" y="52">dataSource</tspan>
                </text>
                <g id="Group" transform="translate(15.000000, 0.000000)">
                    <path d="M21,26 C21,28.7614237 16.2989899,31.5252638 10.5,31.5252638 C4.70101013,31.5252638 0,28.7614237 0,26 L0,6 C1.5657509e-15,3.23857625 4.70101013,0.474736184 10.5,0.474736184 C16.2989899,0.474736184 21,3.23857625 21,6 L21,26 Z" id="Combined-Shape" fill="#FFFFFF"></path>
                    <path d="M10.5,31.223301 C5.11732852,31.223301 0.758122744,28.8543689 0.758122744,25.9417476 L0,25.9417476 C0,29.3203883 4.62454874,32 10.5,32 C16.3754513,32 21,29.3592233 21,25.9417476 L21,6.05825243 C21,2.6407767 16.4133574,0 10.5,0 C4.5866426,0 0,2.6407767 0,6.05825243 L0,25.9417476 L0.758122744,25.9417476 L0.758122744,21.5533981 C2.27436823,23.7669903 6.02707581,25.2815534 10.5,25.2815534 C14.9729242,25.2815534 18.7256318,23.7669903 20.2418773,21.5533981 L20.2418773,25.9417476 C20.2418773,28.8543689 15.8826715,31.223301 10.5,31.223301 Z M10.5,0.776699029 C15.8826715,0.776699029 20.2418773,3.14563107 20.2418773,6.05825243 C20.2418773,8.97087379 15.8826715,11.3009709 10.5,11.3009709 C5.11732852,11.3009709 0.758122744,8.97087379 0.758122744,6.05825243 C0.758122744,3.14563107 5.11732852,0.776699029 10.5,0.776699029 Z M0.758122744,8.34951456 C2.27436823,10.5631068 6.02707581,12.0776699 10.5,12.0776699 C14.9729242,12.0776699 18.7256318,10.5631068 20.2418773,8.34951456 L20.2418773,12.6601942 C20.2418773,15.5728155 15.8826715,17.9417476 10.5,17.9417476 C5.11732852,17.9417476 0.758122744,15.5339806 0.758122744,12.6601942 L0.758122744,8.34951456 Z M10.5,24.5048544 C5.11732852,24.5048544 0.758122744,22.1359223 0.758122744,19.223301 L0.758122744,14.9514563 C2.27436823,17.1650485 6.02707581,18.6796117 10.5,18.6796117 C14.9729242,18.6796117 18.7256318,17.1650485 20.2418773,14.9514563 L20.2418773,19.2621359 C20.2418773,22.1359223 15.8826715,24.5048544 10.5,24.5048544 Z" id="Shape" fill="#F38794" fill-rule="nonzero"></path>
                </g>
                <path d="M136,1 L39.5,27.5" id="Line-2" stroke="#F38794" stroke-width="2" stroke-linecap="square"></path>
                <circle id="Oval-5" stroke="#F38794" fill="#FFFFFF" cx="34.5" cy="29.5" r="10.5"></circle>
                <text id="?" font-family="SFUIDisplay-Medium, SF UI Display" font-size="17" font-weight="400" fill="#F38794">
                    <tspan x="30.2043457" y="36">?</tspan>
                </text>
            </g>
            <text id="delegate" font-family="SFUIDisplay-Light, SF UI Display" font-size="13" font-weight="300" fill="#FFFFFF">
                <tspan x="381.151855" y="361">delegate</tspan>
            </text>
            <path d="M520,277 L412.5,336.5" id="Line-2" stroke="#F38794" stroke-width="2" stroke-linecap="square"></path>
            <g id="Group" transform="translate(382.000000, 308.000000)">
                <path d="M2.11679249,9 L5.80356436,1.09369221 L8.52248772,2.361547 L5.42692624,9 L10,9 L17,9 L20,9 L20,23 L17,23 L17,34 L10,34 L10,12 L2,12 L2,9 L2.11679249,9 Z M13.5,7 C11.5670034,7 10,5.65685425 10,4 C10,2.34314575 11.5670034,1 13.5,1 C15.4329966,1 17,2.34314575 17,4 C17,5.65685425 15.4329966,7 13.5,7 Z" id="Combined-Shape" fill="#FFFFFF"></path>
                <path d="M13.44,7.60869565 C15.792,7.60869565 17.64,5.93478261 17.64,3.80434783 C17.64,1.67391304 15.792,0 13.44,0 C11.088,0 9.24,1.67391304 9.24,3.80434783 C9.24,5.93478261 11.088,7.60869565 13.44,7.60869565 Z M13.44,1.52173913 C14.868,1.52173913 15.96,2.51086957 15.96,3.80434783 C15.96,5.09782609 14.868,6.08695652 13.44,6.08695652 C12.012,6.08695652 10.92,5.09782609 10.92,3.80434783 C10.92,2.51086957 12.012,1.52173913 13.44,1.52173913 Z" id="Shape" fill="#F38794" fill-rule="nonzero"></path>
                <path d="M18.48,8.36956522 L7.056,8.36956522 L9.072,3.88043478 C9.324,3.34782609 9.576,1.59782609 7.644,0.913043478 C5.712,0.22826087 4.62,1.59782609 4.368,2.20652174 L1.008,9.81521739 C0.672,10.5 0.756,11.3369565 1.26,11.9456522 C1.764,12.5543478 2.52,12.9347826 3.36,12.9347826 L9.24,12.9347826 L9.24,34.2391304 C9.24,34.6956522 9.576,35 10.08,35 L16.8,35 C17.304,35 17.64,34.6956522 17.64,34.2391304 L17.64,24.1956522 C17.892,24.2717391 18.144,24.3478261 18.48,24.3478261 C19.908,24.3478261 21,23.3586957 21,22.0652174 L21,10.6521739 C21,9.35869565 19.908,8.36956522 18.48,8.36956522 Z M19.32,22.0652174 C19.32,22.5217391 18.984,22.826087 18.48,22.826087 C17.976,22.826087 17.64,22.5217391 17.64,22.0652174 L17.64,12.9347826 C17.64,12.4782609 17.304,12.173913 16.8,12.173913 C16.296,12.173913 15.96,12.4782609 15.96,12.9347826 L15.96,33.4782609 L14.28,33.4782609 L14.28,25.1086957 C14.28,24.6521739 13.944,24.3478261 13.44,24.3478261 C12.936,24.3478261 12.6,24.6521739 12.6,25.1086957 L12.6,33.4782609 L10.92,33.4782609 L10.92,12.173913 C10.92,11.7173913 10.584,11.4130435 10.08,11.4130435 L3.36,11.4130435 C3.108,11.4130435 2.856,11.2608696 2.688,11.1086957 C2.52,10.8804348 2.52,10.6521739 2.604,10.423913 L5.964,2.81521739 C6.048,2.66304348 6.384,2.20652174 7.056,2.35869565 C7.728,2.58695652 7.644,3.19565217 7.56,3.34782609 L5.04,8.82608696 C4.956,9.05434783 4.956,9.35869565 5.124,9.51086957 C5.292,9.73913043 5.544,9.81521739 5.796,9.81521739 L18.396,9.81521739 C18.9,9.81521739 19.236,10.1195652 19.236,10.576087 L19.236,22.0652174 L19.32,22.0652174 Z" id="Shape" fill="#F38794" fill-rule="nonzero"></path>
            </g>
            <circle id="Oval-5" stroke="#F38794" fill="#FFFFFF" cx="407.5" cy="338.5" r="10.5"></circle>
            <text id="?" font-family="SFUIDisplay-Medium, SF UI Display" font-size="17" font-weight="400" fill="#F38794">
                <tspan x="403.204346" y="345">?</tspan>
            </text>
        </g>
    </g>
</svg>