<?xml version="1.0" encoding="UTF-8"?>
<svg width="820px" height="457px" viewBox="0 0 820 457" version="1.1" xmlns="http://www.w3.org/2000/svg" xmlns:xlink="http://www.w3.org/1999/xlink" style="background: #EDEFF2;">
    <!-- Generator: Sketch 43.2 (39069) - http://www.bohemiancoding.com/sketch -->
    <title>P3C1_6</title>
    <desc>Created with Sketch.</desc>
    <defs></defs>
    <g id="Page-1" stroke="none" stroke-width="1" fill="none" fill-rule="evenodd">
        <g id="P3C1_6">
            <rect id="Rectangle-14" fill="#C8EDA0" x="302" y="55" width="139" height="68"></rect>
            <rect id="Rectangle" fill="#FFFFFF" x="17" y="19" width="244" height="419"></rect>
            <rect id="Rectangle-14" fill="#F48794" x="302" y="148" width="139" height="68"></rect>
            <rect id="Rectangle-14" fill="#5B8EC9" x="302" y="241" width="139" height="68"></rect>
            <rect id="Rectangle-14" fill="#576B82" x="302" y="335" width="139" height="68"></rect>
            <rect id="Rectangle-15" fill="#FFFFFF" x="517" y="108" width="52" height="57"></rect>
            <rect id="Rectangle-15" fill="#FFFFFF" x="517" y="182" width="52" height="57"></rect>
            <rect id="Rectangle-16" fill="#FFFFFF" x="517" y="252" width="96" height="47"></rect>
            <rect id="Rectangle-16" fill="#FFFFFF" x="517" y="341" width="120" height="57"></rect>
            <rect id="Rectangle-16" fill="#C0C4C9" x="517" y="341" width="120" height="57"></rect>
            <rect id="Rectangle-16" fill="#FFFFFF" x="708" y="346" width="96" height="47"></rect>
            <path d="M514.5,136.5 L442.5,175.5" id="Line" stroke="#C0C4C9" fill="#C0C4C9" stroke-linecap="square"></path>
            <path id="Line-decoration-1" d="M442.5,175.5 L453.425203,172.994018 L450.567504,167.718266 L442.5,175.5 Z" stroke="#C0C4C9" fill="#C0C4C9" stroke-linecap="square"></path>
            <path d="M514.5,213.5 L443.5,190.5" id="Line" stroke="#C0C4C9" fill="#C0C4C9" stroke-linecap="square"></path>
            <path id="Line-decoration-1" d="M443.5,190.5 L452.849823,196.682299 L454.698885,190.974325 L443.5,190.5 Z" stroke="#C0C4C9" fill="#C0C4C9" stroke-linecap="square"></path>
            <path d="M514.5,275.5 L444.5,275.5" id="Line" stroke="#C0C4C9" fill="#C0C4C9" stroke-linecap="square"></path>
            <path id="Line-decoration-1" d="M444.5,275.5 L455.3,278.5 L455.3,272.5 L444.5,275.5 Z" stroke="#C0C4C9" fill="#C0C4C9" stroke-linecap="square"></path>
            <path d="M514.5,368.5 L444.5,368.5" id="Line" stroke="#C0C4C9" fill="#C0C4C9" stroke-linecap="square"></path>
            <path id="Line-decoration-1" d="M444.5,368.5 L455.3,371.5 L455.3,365.5 L444.5,368.5 Z" stroke="#C0C4C9" fill="#C0C4C9" stroke-linecap="square"></path>
            <path d="M707.5,371.5 L637.5,371.5" id="Line" stroke="#C0C4C9" fill="#C0C4C9" stroke-linecap="square"></path>
            <path id="Line-decoration-1" d="M637.5,371.5 L648.3,374.5 L648.3,368.5 L637.5,371.5 Z" stroke="#C0C4C9" fill="#C0C4C9" stroke-linecap="square"></path>
            <path d="M301.5,90.5 L261.5,90.5" id="Line" stroke="#C0C4C9" fill="#C0C4C9" stroke-linecap="square"></path>
            <path id="Line-decoration-1" d="M261.5,90.5 L272.3,93.5 L272.3,87.5 L261.5,90.5 Z" stroke="#C0C4C9" fill="#C0C4C9" stroke-linecap="square"></path>
            <path d="M301.5,183.5 L261.5,183.5" id="Line" stroke="#C0C4C9" fill="#C0C4C9" stroke-linecap="square"></path>
            <path id="Line-decoration-1" d="M261.5,183.5 L272.3,186.5 L272.3,180.5 L261.5,183.5 Z" stroke="#C0C4C9" fill="#C0C4C9" stroke-linecap="square"></path>
            <path d="M301.5,272.5 L261.5,272.5" id="Line" stroke="#C0C4C9" fill="#C0C4C9" stroke-linecap="square"></path>
            <path id="Line-decoration-1" d="M261.5,272.5 L272.3,275.5 L272.3,269.5 L261.5,272.5 Z" stroke="#C0C4C9" fill="#C0C4C9" stroke-linecap="square"></path>
            <path d="M301.5,367.5 L261.5,367.5" id="Line" stroke="#C0C4C9" fill="#C0C4C9" stroke-linecap="square"></path>
            <path id="Line-decoration-1" d="M261.5,367.5 L272.3,370.5 L272.3,364.5 L261.5,367.5 Z" stroke="#C0C4C9" fill="#C0C4C9" stroke-linecap="square"></path>
        </g>
    </g>
</svg>