<?xml version="1.0" encoding="UTF-8"?>
<svg width="700px" height="375px" viewBox="0 0 700 375" version="1.1" xmlns="http://www.w3.org/2000/svg" xmlns:xlink="http://www.w3.org/1999/xlink" style="background: #EDEFF2;">
    <!-- Generator: Sketch 43.2 (39069) - http://www.bohemiancoding.com/sketch -->
    <title>P4C2_3</title>
    <desc>Created with Sketch.</desc>
    <defs>
        <rect id="path-1" x="43" y="0" width="205" height="399"></rect>
    </defs>
    <g id="P4" stroke="none" stroke-width="1" fill="none" fill-rule="evenodd">
        <g id="P4C2_3">
            <g id="Contrôleur" transform="translate(205.000000, -12.000000)">
                <g id="Rectangle-5">
                    <use fill="#5B8EC9" fill-rule="evenodd" xlink:href="#path-1"></use>
                    <rect stroke="#576B82" stroke-width="4" x="45" y="2" width="201" height="395"></rect>
                </g>
                <path d="M55,12.5 L55,407.5" id="Line" stroke="#576B82" stroke-width="4" stroke-linecap="square" stroke-dasharray="10,10,10,10"></path>
                <path d="M237,12.5 L237,407.5" id="Line" stroke="#576B82" stroke-width="4" stroke-linecap="square" stroke-dasharray="10,10,10,10"></path>
                <text font-family="SFUIDisplay-Light, SF UI Display" font-size="35" font-weight="300" fill="#FFFFFF">
                    <tspan x="68.4890137" y="167">Contrôleur</tspan>
                </text>
                <g id="Propriété" transform="translate(0.000000, 204.000000)">
                    <path d="M38,6 L92,6 L92,25 L38,25 L38,30 L9.18485099e-16,15 L38,3.55271368e-15 L38,6 Z" id="Combined-Shape" fill="#C8EDA0"></path>
                    <text font-family="SFUIDisplay-Light, SF UI Display" font-size="18" font-weight="300" fill="#417505">
                        <tspan x="23" y="21">Propriété</tspan>
                    </text>
                </g>
                <g id="Outlet" transform="translate(199.000000, 204.000000)">
                    <path d="M38,6 L92,6 L92,25 L38,25 L38,30 L9.18485099e-16,15 L38,3.55271368e-15 L38,6 Z" id="Combined-Shape" fill="#C8EDA0" transform="translate(46.000000, 15.000000) scale(-1, 1) translate(-46.000000, -15.000000) "></path>
                    <text font-family="SFUIDisplay-Light, SF UI Display" font-size="20" font-weight="300" fill="#417505">
                        <tspan x="4" y="22">Outlet</tspan>
                    </text>
                </g>
                <g id="Target" transform="translate(233.000000, 63.000000)" stroke="#F48794" stroke-width="2" fill="#FFFFFF">
                    <circle id="Oval-4" cx="15" cy="15" r="15"></circle>
                    <circle id="Oval-4" cx="15" cy="15" r="10"></circle>
                    <circle id="Oval-4" cx="15" cy="15" r="5"></circle>
                </g>
                <path d="M38.5,42.5 L38.5,63.5 L32.5,63.5 L32.5,42.5 L27.5,42.5 L27.5,26.5 L43.5,26.5 L43.5,42.5 L38.5,42.5 Z" id="Récepteur" fill="#E6BD7B" transform="translate(35.500000, 45.000000) rotate(-90.000000) translate(-35.500000, -45.000000) "></path>
            </g>
            <g id="Modèle" transform="translate(30.000000, 68.000000)">
                <ellipse id="Oval-2" fill="#C0C4C9" cx="93.5" cy="124.5" rx="93.5" ry="116.5"></ellipse>
                <text font-family="SFUIDisplay-Light, SF UI Display" font-size="35" font-weight="300" fill="#FFFFFF">
                    <tspan x="38.2485352" y="137">Modèle</tspan>
                </text>
                <g id="Emetteur" transform="translate(22.980970, 22.980970) rotate(-45.000000) translate(-22.980970, -22.980970) translate(9.980970, 3.480970)">
                    <path d="M16,21.4878829 L16,39 L10,39 L10,21.4878829 C6.50442288,20.2523737 4,16.9186565 4,13 C4,8.02943725 8.02943725,4 13,4 C17.9705627,4 22,8.02943725 22,13 C22,16.9186565 19.4955771,20.2523737 16,21.4878829 Z" id="Combined-Shape" fill="#E6BD7B"></path>
                    <circle id="Oval-3" stroke="#E6BD7B" stroke-dasharray="3" cx="13" cy="13" r="13"></circle>
                </g>
            </g>
            <g id="Vue" transform="translate(483.000000, 76.000000)">
                <ellipse id="Oval-2" fill="#C0C4C9" cx="93.5" cy="116.5" rx="93.5" ry="116.5"></ellipse>
                <text font-family="SFUIDisplay-Light, SF UI Display" font-size="35" font-weight="300" fill="#FFFFFF">
                    <tspan x="64.3361816" y="129">Vue</tspan>
                </text>
                <g id="Arrow" transform="translate(2.000000, 12.000000)" stroke="#F48794" stroke-linecap="square">
                    <path d="M28.5,24.5 L0.5,0.5" id="Line" fill="#F48794"></path>
                    <path id="Line-decoration-1" d="M0.5,0.5 L6.74759719,9.80631664 L10.6523454,5.25077703 L0.5,0.5 Z" fill="#F48794"></path>
                    <path d="M28.5,24.5 L28.5,28.5" id="Line"></path>
                    <path d="M28.5,24.5 L31.5,24.5" id="Line"></path>
                </g>
            </g>
            <text id="On-n’a-pas-fait-ça" font-family="SFUIDisplay-Light, SF UI Display" font-size="18" font-weight="300" fill="#F48794">
                <tspan x="56" y="37">On n’a </tspan>
                <tspan x="107.758789" y="37" font-family="SFUIDisplay-Bold, SF UI Display" font-weight="bold">pas</tspan>
                <tspan x="138.248047" y="37"> fait ça </tspan>
            </text>
            <path d="M190.5,34.5 L216.5,34.5" id="Line" stroke="#F48794" fill="#F48794" stroke-linecap="square"></path>
            <path id="Line-decoration-1" d="M216.5,34.5 L205.7,31.5 L205.7,37.5 L216.5,34.5 Z" stroke="#F48794" fill="#F48794" stroke-linecap="square"></path>
            <path d="M72.5,60.5 L61.5,75.5" id="Line" stroke="#F48794" fill="#F48794" stroke-linecap="square"></path>
            <path id="Line-decoration-1" d="M61.5,75.5 L70.3059426,68.564917 L65.4675126,65.0167351 L61.5,75.5 Z" stroke="#F48794" fill="#F48794" stroke-linecap="square"></path>
            <text id="On-a-fait-ça" font-family="SFUIDisplay-Light, SF UI Display" font-size="18" font-weight="300" fill="#F48794">
                <tspan x="5" y="56">On a fait ça</tspan>
            </text>
        </g>
    </g>
</svg>