<?xml version="1.0" encoding="UTF-8"?>
<svg width="700px" height="375px" viewBox="0 0 700 375" version="1.1" xmlns="http://www.w3.org/2000/svg" xmlns:xlink="http://www.w3.org/1999/xlink">
    <!-- Generator: Sketch 50 (54983) - http://www.bohemiancoding.com/sketch -->
    <title>P2C3_2</title>
    <desc>Created with Sketch.</desc>
    <defs></defs>
    <g id="P2C3_2" stroke="none" stroke-width="1" fill="none" fill-rule="evenodd">
        <g id="Modèle" transform="translate(30.000000, 68.000000)">
            <ellipse id="Oval-2" fill="#2AADC0" cx="93.5" cy="124.5" rx="93.5" ry="116.5"></ellipse>
            <text font-family="SFUIDisplay-Light, SF UI Display" font-size="35" font-weight="300" fill="#FFFFFF">
                <tspan x="38.2485352" y="137">Modèle</tspan>
            </text>
            <g id="Emetteur" transform="translate(22.980970, 22.980970) rotate(-45.000000) translate(-22.980970, -22.980970) translate(9.980970, 3.480970)">
                <path d="M16,21.4878829 L16,39 L10,39 L10,21.4878829 C6.50442288,20.2523737 4,16.9186565 4,13 C4,8.02943725 8.02943725,4 13,4 C17.9705627,4 22,8.02943725 22,13 C22,16.9186565 19.4955771,20.2523737 16,21.4878829 Z" id="Combined-Shape" fill="#E5BD7B"></path>
                <path d="M13,26 C20.1797017,26 26,20.1797017 26,13 C26,5.82029825 20.1797017,0 13,0 C5.82029825,0 0,5.82029825 0,13 C0,20.1797017 5.82029825,26 13,26 Z" id="Oval-3" stroke="#E5BD7B" stroke-dasharray="3"></path>
            </g>
        </g>
        <g id="Vue" transform="translate(483.000000, 76.000000)">
            <ellipse id="Oval-2" fill="#2AADC0" cx="93.5" cy="116.5" rx="93.5" ry="116.5"></ellipse>
            <text font-family="SFUIDisplay-Light, SF UI Display" font-size="35" font-weight="300" fill="#FFFFFF">
                <tspan x="64.3361816" y="129">Vue</tspan>
            </text>
            <g id="Arrow" transform="translate(2.000000, 12.000000)" stroke="#C02A75" stroke-linecap="square">
                <path d="M28.5,24.5 L0.5,0.5" id="Line" fill="#C02A75"></path>
                <path id="Line-decoration-1" d="M0.5,0.5 L6.74759719,9.80631664 L10.6523454,5.25077703 L0.5,0.5 Z" fill="#C02A75"></path>
                <path d="M28.5,24.5 L28.5,28.5" id="Line"></path>
                <path d="M28.5,24.5 L31.5,24.5" id="Line"></path>
            </g>
        </g>
        <g id="Contrôleur" transform="translate(205.000000, -12.000000)">
            <rect id="Rectangle-5" stroke="#9A2F2F" stroke-width="4" fill="#BD3B3B" x="45" y="2" width="201" height="395"></rect>
            <path d="M55,12.5 L55,407.5" id="Line" stroke="#9A2F2F" stroke-width="4" stroke-linecap="square" stroke-dasharray="10,10,10,10"></path>
            <path d="M237,12.5 L237,407.5" id="Line" stroke="#9A2F2F" stroke-width="4" stroke-linecap="square" stroke-dasharray="10,10,10,10"></path>
            <text font-family="SFUIDisplay-Light, SF UI Display" font-size="35" font-weight="300" fill="#FFFFFF">
                <tspan x="68.4890137" y="167">Contrôleur</tspan>
            </text>
            <g id="Propriété" transform="translate(0.000000, 204.000000)">
                <path d="M38,6 L92,6 L92,25 L38,25 L38,30 L9.18485099e-16,15 L38,3.55271368e-15 L38,6 Z" id="Combined-Shape" fill="#2D8D63"></path>
                <text font-family="SFUIDisplay-Light, SF UI Display" font-size="18" font-weight="300" fill="#89FFCB">
                    <tspan x="23" y="21">Propriété</tspan>
                </text>
            </g>
            <g id="Outlet" transform="translate(199.000000, 204.000000)">
                <path d="M38,6 L92,6 L92,25 L38,25 L38,30 L9.18485099e-16,15 L38,3.55271368e-15 L38,6 Z" id="Combined-Shape" fill="#2D8D63" transform="translate(46.000000, 15.000000) scale(-1, 1) translate(-46.000000, -15.000000) "></path>
                <text font-family="SFUIDisplay-Light, SF UI Display" font-size="20" font-weight="300" fill="#89FFCB">
                    <tspan x="4" y="22">Outlet</tspan>
                </text>
            </g>
            <g id="Target" transform="translate(233.000000, 63.000000)" fill="#FFFFFF" stroke="#C02A75" stroke-width="2">
                <circle id="Oval-4" cx="15" cy="15" r="15"></circle>
                <circle id="Oval-4" cx="15" cy="15" r="10"></circle>
                <circle id="Oval-4" cx="15" cy="15" r="5"></circle>
            </g>
            <path d="M38.5,42.5 L38.5,63.5 L32.5,63.5 L32.5,42.5 L27.5,42.5 L27.5,26.5 L43.5,26.5 L43.5,42.5 L38.5,42.5 Z" id="Récepteur" fill="#E5BD7B" transform="translate(35.500000, 45.000000) rotate(-90.000000) translate(-35.500000, -45.000000) "></path>
        </g>
        <g id="Callback" transform="translate(150.000000, 59.000000)">
            <path d="M109.690343,89.3720615 C45.2301142,89.2339308 13,77.8675161 13,55.2728174 C13,32.6781188 45.2301142,22.3269702 109.690343,24.2193716" id="Line-3" stroke="#CC5CE3" stroke-width="2" stroke-linecap="square"></path>
            <g id="Group" transform="translate(0.000000, 42.000000)">
                <rect id="Rectangle-2" fill="#2AADC0" x="0" y="0" width="30" height="30"></rect>
                <path d="M15,25 C20.5228475,25 25,20.5228475 25,15 C25,9.4771525 20.5228475,5 15,5 C9.4771525,5 5,9.4771525 5,15 C5,20.5228475 9.4771525,25 15,25 Z" id="Oval-5" stroke="#CC5CE3" stroke-width="5" fill-opacity="0" fill="#D8D8D8" stroke-dasharray="4,2"></path>
            </g>
            <polygon id="Triangle-2" fill="#CC5CE3" transform="translate(115.211737, 23.067353) rotate(86.000000) translate(-115.211737, -23.067353) " points="115.211737 14.5673526 123.711737 31.5673526 106.711737 31.5673526"></polygon>
            <text font-family="SFUIDisplay-Medium, SF UI Display" font-size="20" font-weight="400" fill="#BD4DD4">
                <tspan x="15.0527344" y="19">Callbac</tspan>
                <tspan x="81.5761719" y="19" letter-spacing="3">k</tspan>
            </text>
        </g>
        <g id="dataSource" transform="translate(367.000000, 249.000000)">
            <text font-family="SFUIDisplay-Light, SF UI Display" font-size="13" font-weight="300" fill="#FFFFFF">
                <tspan x="0.477539062" y="52">dataSource</tspan>
            </text>
            <g id="Group" transform="translate(15.000000, 0.000000)">
                <path d="M21,26 C21,28.7614237 16.2989899,31.5252638 10.5,31.5252638 C4.70101013,31.5252638 0,28.7614237 0,26 L0,6 C1.5657509e-15,3.23857625 4.70101013,0.474736184 10.5,0.474736184 C16.2989899,0.474736184 21,3.23857625 21,6 L21,26 Z" id="Combined-Shape" fill="#FFFFFF"></path>
                <path d="M10.5,31.223301 C5.11732852,31.223301 0.758122744,28.8543689 0.758122744,25.9417476 L0,25.9417476 C0,29.3203883 4.62454874,32 10.5,32 C16.3754513,32 21,29.3592233 21,25.9417476 L21,6.05825243 C21,2.6407767 16.4133574,0 10.5,0 C4.5866426,0 0,2.6407767 0,6.05825243 L0,25.9417476 L0.758122744,25.9417476 L0.758122744,21.5533981 C2.27436823,23.7669903 6.02707581,25.2815534 10.5,25.2815534 C14.9729242,25.2815534 18.7256318,23.7669903 20.2418773,21.5533981 L20.2418773,25.9417476 C20.2418773,28.8543689 15.8826715,31.223301 10.5,31.223301 Z M10.5,0.776699029 C15.8826715,0.776699029 20.2418773,3.14563107 20.2418773,6.05825243 C20.2418773,8.97087379 15.8826715,11.3009709 10.5,11.3009709 C5.11732852,11.3009709 0.758122744,8.97087379 0.758122744,6.05825243 C0.758122744,3.14563107 5.11732852,0.776699029 10.5,0.776699029 Z M0.758122744,8.34951456 C2.27436823,10.5631068 6.02707581,12.0776699 10.5,12.0776699 C14.9729242,12.0776699 18.7256318,10.5631068 20.2418773,8.34951456 L20.2418773,12.6601942 C20.2418773,15.5728155 15.8826715,17.9417476 10.5,17.9417476 C5.11732852,17.9417476 0.758122744,15.5339806 0.758122744,12.6601942 L0.758122744,8.34951456 Z M10.5,24.5048544 C5.11732852,24.5048544 0.758122744,22.1359223 0.758122744,19.223301 L0.758122744,14.9514563 C2.27436823,17.1650485 6.02707581,18.6796117 10.5,18.6796117 C14.9729242,18.6796117 18.7256318,17.1650485 20.2418773,14.9514563 L20.2418773,19.2621359 C20.2418773,22.1359223 15.8826715,24.5048544 10.5,24.5048544 Z" id="Shape" fill="#F38794" fill-rule="nonzero"></path>
            </g>
            <path d="M136,1 L39.5,27.5" id="Line-2" stroke="#F38794" stroke-width="2" stroke-linecap="square"></path>
            <circle id="Oval-5" stroke="#F38794" fill="#FFFFFF" cx="34.5" cy="29.5" r="10.5"></circle>
            <text id="?" font-family="SFUIDisplay-Medium, SF UI Display" font-size="17" font-weight="400" fill="#F38794">
                <tspan x="30.2043457" y="36">?</tspan>
            </text>
        </g>
    </g>
</svg>